<?xml version="1.0" encoding="UTF-8"?><svg id="_图层_2" xmlns="http://www.w3.org/2000/svg" viewBox="0 0 1074 450"><defs><style>.cls-1{opacity:.15;stroke:#000;}.cls-1,.cls-2,.cls-3{fill:none;}.cls-1,.cls-3,.cls-4{stroke-miterlimit:10;}.cls-3,.cls-4{stroke:#666;stroke-width:.5px;}.cls-4{fill:#fff;}</style></defs><path d="M125.964,150.482c0,32.494,0,64.987,0,97.481,0-.613,4.568-3.53,5.184-4.029.782-.633,5.019-3.168,5.019-4.233v-1.15c0,.613-4.568,3.53-5.184,4.029-.782.633-5.019,3.168-5.019,4.233v1.15c3.401-2.754,6.802-5.508,10.203-8.262,0-32.494,0-64.987,0-97.481,0,.613-4.568,3.53-5.184,4.029-.782.633-5.019,3.168-5.019,4.233h0Z"/><path d="M177.495,150.482c0,32.494,0,64.987,0,97.481,0-.613,4.568-3.53,5.184-4.029.782-.633,5.019-3.168,5.019-4.233v-1.15c0,.613-4.568,3.53-5.184,4.029-.782.633-5.019,3.168-5.019,4.233v1.15c3.401-2.754,6.802-5.508,10.203-8.262,0-32.494,0-64.987,0-97.481,0,.613-4.568,3.53-5.184,4.029-.782.633-5.019,3.168-5.019,4.233h0Z"/><path d="M125.866,194.044c17.395,0,34.789,0,52.184,0,1.275,0,4.234-3.259,5.218-4.055.921-.746,3.9-4.261,5.052-4.261-17.395,0-34.789,0-52.184,0-1.275,0-4.234,3.259-5.218,4.055-.921.746-3.9,4.261-5.052,4.261h0Z"/><path d="M229.731,205.369c0,14.198,0,28.396,0,42.594,0-.56,4.174-3.226,4.737-3.682.714-.578,4.586-2.895,4.586-3.868,0-14.198,0-28.396,0-42.594,0,.56-4.174,3.226-4.737,3.682-.714.578-4.586,2.895-4.586,3.868h0Z"/><path d="M206.53,194.997c-.226-1.064-.154-2.098.219-3.1,1.744-3.079.106-1.979-4.915,3.3,1.291.1,3.424-1.06,4.774-1.242,3.694-.497,7.648-.456,11.285.34,5.99,1.31,10.145,5.465,11.821,11.244-.393-1.356,9.988-6.014,9.501-7.694-3.12-10.757-14.702-13.455-24.751-11.315-4.135.881-7.063,3.531-10.259,6.121-3.506,2.84-7.381,5.079-7.176,10.04-.021-.514,4.285-3.313,4.827-3.752.687-.556,4.712-3.011,4.674-3.942h0Z"/><path d="M238.376,210.234c-9.56-3.323-19.114-1.429-27.011,4.703-6.403,4.973-13.47,10.413-14.762,19.013-.707,4.703,1.721,9.532,5.824,11.96,4.47,2.645,10.18,1.899,14.938.522,6.829-1.976,13.785-7.362,18.28-12.823-2.006,2.438-5.554,3.67-7.598,6.152,2.367-1.593,2.538-1.847.514-.763l-1.415.574c-1.424.533-2.912.952-4.398,1.273-3.152.682-6.609,1.045-9.76.157-5.355-1.509-9.412-6.816-8.871-12.438.26-2.707,1.292-5.395,2.642-7.739.68-1.18,1.576-2.674,2.564-3.629-1.57,1.517,1.731-.575,2.245-.772,6.209-2.379,12.983-2.203,19.209-.039,1.735.603,6.097-6.674,7.598-6.152h0Z"/><path d="M247.624,193.057c0,18.302,0,36.604,0,54.906,0-.615,4.584-3.542,5.202-4.043.784-.635,5.036-3.179,5.036-4.248,0-18.302,0-36.604,0-54.906,0,.615-4.584,3.542-5.202,4.043-.784.635-5.036,3.179-5.036,4.248h0Z"/><path d="M263.046,192.081c-.898,1.083-8.135,5.032-3.114,3.206.884-.322,1.78-.57,2.701-.76,2.259-.465,4.616-.572,6.899-.213,5.398.849,7.61,4.191,8.946,9.231-.418-1.578,10.853-6.445,10.341-8.374-1.177-4.44-2.951-7.784-7.625-8.967-3.98-1.008-8.498-.454-12.214,1.234-5.836,2.652-12.208,8.11-16.276,13.017,2.745-3.311,7.546-5.003,10.341-8.374h0Z"/><path d="M278.609,203.181c0,14.927,0,29.854,0,44.781,0-.605,4.513-3.488,5.122-3.981.772-.625,4.959-3.13,4.959-4.182,0-14.927,0-29.854,0-44.781,0,.605-4.513,3.488-5.122,3.981-.772.625-4.959,3.13-4.959,4.182h0Z"/><path d="M292.26,192.238c-.898,1.083-8.135,5.032-3.114,3.206.884-.322,1.78-.57,2.701-.76,2.259-.465,4.616-.572,6.899-.213,5.398.849,7.61,4.191,8.946,9.231-.418-1.578,10.853-6.445,10.341-8.374-1.177-4.44-2.951-7.784-7.625-8.967-3.98-1.008-8.498-.454-12.214,1.234-5.836,2.652-12.208,8.11-16.276,13.017,2.745-3.311,7.546-5.003,10.341-8.374h0Z"/><path d="M307.744,203.181c0,14.927,0,29.854,0,44.781,0-.605,4.513-3.488,5.122-3.981.772-.625,4.959-3.13,4.959-4.182,0-14.927,0-29.854,0-44.781,0,.605-4.513,3.488-5.122,3.981-.772.625-4.959,3.13-4.959,4.182h0Z"/><path d="M326.716,150.955c0,32.336,0,64.672,0,97.008,0-.613,4.57-3.532,5.187-4.031.782-.633,5.021-3.17,5.021-4.235,0-32.336,0-64.672,0-97.008,0,.613-4.57,3.532-5.187,4.031-.782.633-5.021,3.17-5.021,4.235h0Z"/><path d="M344.724,191.532c.2-1.418.441-2.075,1.309-3.201l-2.461,2.14.883-.729c-2.589,2.048-5.178,4.096-7.767,6.143,7.334-4.117,18.151-2.416,23.239,4.478,4.757,6.446,5.376,15.882,4.785,23.584-.3,3.914-1.571,6.989-2.691,10.642-1.707,2.422-.769,1.922,2.814-1.5-.886.445-1.793.84-2.723,1.186-2.002.758-4.085,1.339-6.224,1.519-8.923.752-14.717-4.436-18.976-11.698.235.401-10.66,7.546-10.229,8.283,2.835,4.835,6.558,9.565,12.16,11.065,5.872,1.572,12.109.205,17.258-2.896,4.562-2.747,8.972-6.51,12.834-10.158,3.964-3.745,5.437-8.637,5.949-13.966,1.155-12.017-1.492-28.834-16.035-30.852-5.017-.696-10.068.514-14.013,3.583-3.377,2.627-9.685,6.018-10.341,10.661.118-.836,4.439-3.426,5.197-4.039.953-.771,4.85-2.958,5.031-4.244h0Z"/><path d="M381.911,191.417c0,12.814,0,25.628,0,38.442,0-.596,4.443-3.433,5.042-3.919.76-.615,4.882-3.082,4.882-4.117,0-12.814,0-25.628,0-38.442,0,.596-4.443,3.433-5.042,3.919-.76.615-4.882,3.082-4.882,4.117h0Z"/><path d="M419.75,192.316v55.646c0-.611,4.557-3.522,5.172-4.02.78-.631,5.007-3.161,5.007-4.223v-55.646c0,.611-4.557,3.522-5.172,4.02-.78.631-5.007,3.161-5.007,4.223h0Z"/><path d="M381.877,229.43c.428,6.327,3.802,13.433,10.205,15.623,6.328,2.164,13.836.168,19.722-2.379,3.804-1.646,6.222-6.437,9.931-8.042-5.892,2.55-13.393,4.544-19.722,2.379-6.399-2.188-9.777-9.3-10.205-15.623.034.5-4.498,3.479-5.046,3.922-.691.559-4.948,3.188-4.885,4.12h0Z"/><path d="M441.058,193.062v54.901c0-.612,4.563-3.527,5.179-4.025.781-.632,5.014-3.165,5.014-4.229v-54.901c0,.612-4.563,3.527-5.179,4.025-.781.632-5.014,3.165-5.014,4.229h0Z"/><path d="M451.067,201.161c1.069-3.487,2.925-5.913,5.305-8.633,2.666-2.504,1.363-1.482-3.91,3.065.799-.428,1.599-.856,2.398-1.283,1.802-.756,3.669-1.044,5.602-1.207,7.058-.596,11.667,3.324,14.499,9.583-.372-.822,10.553-6.958,10.027-8.12-2.129-4.705-5.88-9.369-11.412-9.683-4.988-.283-9.279,1.149-13.241,4.062-7.1,5.222-16.59,11.507-19.297,20.337.329-1.075,4.155-3.199,5.095-3.96,1.144-.926,4.481-2.689,4.932-4.16h0Z"/><path d="M495.224,195.972c2.074-1.587,6.914-1.881,9.428-2.112,4.227-.388,8.492.348,11.877,3.122,3.658,2.998,5.807,7.657,6.005,12.336.099,2.326-.138,4.726-.988,6.908-.407,1.043-1.073,1.897-1.547,2.888-2.296,4.801,9.75-5.847,4.469-3.404-3.98,1.841-6.561,6.663-10.451,8.463,5.146-2.38,10.195-6.703,14.17-10.713,4.487-4.526,6.051-11.252,3.984-17.328-2.27-6.676-8.366-11.15-15.394-10.815-4.108.196-9.269.681-12.613,3.24-2.435,1.863-4.823,3.791-7.18,5.752-.477.397-3.67,3.124-1.759,1.661h0Z"/><path d="M523.553,216.57c-2.074,1.587-6.914,1.881-9.428,2.112-4.227.388-8.492-.348-11.877-3.122-3.658-2.998-5.807-7.657-6.005-12.336-.099-2.326.138-4.726.988-6.908.407-1.043,1.073-1.897,1.547-2.888,2.296-4.801-9.75,5.847-4.469,3.404,3.98-1.841,6.561-6.663,10.451-8.463-5.146,2.38-10.195,6.703-14.17,10.713-4.487,4.526-6.051,11.252-3.984,17.328,2.27,6.676,8.366,11.15,15.394,10.815,4.108-.196,9.269-.681,12.613-3.24,2.435-1.863,4.823-3.791,7.18-5.752.477-.397,3.67-3.124,1.759-1.661h0Z"/><path d="M535.941,188.283c.45-1.13.808-1.934,1.753-2.789-3.288,2.662-6.575,5.325-9.863,7.987,4.58-3.177,12.608-3.739,16.519.943.167.199,10.315-8.18,10.229-8.283-3.869-4.633-11.614-4.075-16.276-1.154-2.922,1.832-5.571,4.278-8.215,6.475-1.893,1.574-3.448,2.772-4.376,5.103.488-1.226,4.118-3.165,5.197-4.039,1.282-1.038,4.399-2.655,5.031-4.244h0Z"/><path d="M504.164,226.68c11.478-9.503.131-1.639-2.856.579-2.785,2.068-5.459,4.305-8.113,6.535-2.927,2.46-10.424,9.639-4.333,12.203,3.903,1.643,8.984,1.094,13.131,1.316,4.091.218,8.205.539,12.16,1.679,6.759,1.948,14.666,6.403,15.273,14.191-.039-.504,4.678-3.617,5.239-4.071.707-.572,5.146-3.326,5.072-4.278-.514-6.595-6.374-10.796-12.06-13.084-7.491-3.014-15.472-2.535-23.357-3.18-2.376-.195-6.966-.161-7.515-3.197-.199-1.098.717-2.753,1.174-3.68.327-.718.721-1.397,1.182-2.036-6.529,4.502-8.143,5.766-4.842,3.793,5.619-2.903,10.338-6.785,15.193-10.805.216-.179,3.83-2.987,1.735-1.639-2.497,1.607-4.799,3.784-7.083,5.674h0Z"/><path d="M527.086,257.019c3.547,5.105,2.815,10.804-.235,16.048-.3.517-3.141,3.909-3.101,3.995,2.825-2.278,3.46-2.791,1.906-1.539-.69.554-1.377,1.111-2.062,1.672-2.076,1.697-4.121,3.419-6.123,5.203,2.357-2.101,7.012-5.341,10.022-8.025-5.188,4.625-.99.814.283-.228,1.173-.96,2.352-1.917,3.503-2.904,1.918-1.643,3.805-3.306,5.224-5.419,3.598-5.361,4.726-11.72.93-17.183.074.107-10.648,7.946-10.347,8.379h0Z"/><path d="M519.499,280.68c8.973-7.536,3.941-4.205-1.094-3.277-3.605.664-6.937.949-10.617.66-4.754-.374-10.571-2.411-13.858-6.072-2.42-2.696-4.3-7.553-4.332-11.191-.034-3.891,1.528-6.239,4.008-8.943-3.549,2.89-7.098,5.78-10.648,8.67,2.247-1.588,4.884-2.089,7.372-3.147,4.166-1.772,6.805-7.071,10.865-8.798-3.116,1.325-6.069,2.088-8.809,4.154-3.27,2.465-6.763,5.004-9.645,7.92-4.669,4.723-4.682,10.28-1.991,16.223,3.818,8.432,14.228,10.882,22.741,10.022,3.878-.392,8.571-1.017,12.001-2.968,4.281-2.435,8.062-6.169,11.814-9.32,1.746-1.466,1.684-1.52-.124-.154-2.626,1.983-5.163,4.105-7.683,6.221h0Z"/><path d="M556.938,196.49c4.781-2.959,12.038-3.992,16.654.025,4.505,3.92,6.188,9.785,6.18,15.614l9.784-7.923c-1.261.655-2.884.896-4.258,1.226-1.593.381-3.711,2.844-4.971,3.864-1.201.973-3.319,3.702-4.813,4.059,1.374-.329,2.997-.571,4.258-1.226,1.785-.926,3.414-2.603,4.971-3.864.751-.608,4.812-3.036,4.813-4.059.008-5.926-1.828-12.703-6.953-16.249-4.944-3.421-11.55-2.083-16.273.84-3.198,1.979-6.915,6.159-9.393,7.692h0Z"/><path d="M542.753,224.176c12.463-3.976,24.926-7.951,37.389-11.927,3.358-1.071,5.448-6.003,8.691-7.038-12.463,3.976-24.926,7.951-37.389,11.927-3.358,1.071-5.448,6.003-8.691,7.038h0Z"/><path d="M573.862,186.123c-6.558.675-12.622,5.517-17.549,9.508-2.998,2.428-6.153,4.665-8.073,8.077-2.861,5.083-5.113,11.595-5.288,17.448-.269,9.036,2.978,18.09,10.839,22.891,8.555,5.224,19.799-.357,28.383-3.172,3.784-1.241,6.135-6.73,9.792-7.929-7.13,2.338-16.309,6.768-24.003,5.16-6.054-1.265-10.556-6.403-12.767-11.845-3.517-8.656-2.741-17.073.621-25.65.487-1.243,3.208-5.146,3.07-6.286-4.749,3.297-5.812,4.218-3.188,2.764.655-.327,1.32-.634,1.993-.922,2.055-.884,4.153-1.886,6.38-2.115,1.389-.143,3.901-2.997,4.975-3.867,1.015-.822,3.535-3.931,4.817-4.062h0Z"/><path d="M646.605,154.936c-.702-5.234-2.821-10.443-8.241-12.019-5.062-1.472-10.766.353-14.909,3.393-3.642,2.673-8.932,5.862-11.194,9.939-3.027,5.457-3.842,13.549-4.343,19.648.061-.742,4.502-3.477,5.197-4.039.879-.712,4.933-3.047,5.031-4.244.425-5.176,1.476-10.143,2.843-15.146.248-.907,2.009-4.372,1.967-5.283l-7.227,5.726,1.123-.503c1.215-.185,2.487-.767,3.682-1.086,9.011-2.403,14.673,3.174,15.842,11.897-.057-.423,4.678-3.619,5.197-4.039.648-.525,5.146-3.388,5.031-4.244h0Z"/><path d="M607.948,175.441v72.522c0-.611,4.553-3.519,5.168-4.016.779-.631,5.003-3.158,5.003-4.22v-72.522c0,.611-4.553,3.519-5.168,4.016-.779.631-5.003,3.158-5.003,4.22h0Z"/><path d="M594.729,193.904c13.45,0,26.901,0,40.351,0,1.253,0,4.162-3.204,5.13-3.987.905-.733,3.834-4.189,4.966-4.189-13.45,0-26.901,0-40.351,0-1.253,0-4.162,3.204-5.13,3.987-.905.733-3.834,4.189-4.966,4.189h0Z"/><path d="M644.554,195.1c5.592-3.021,13.528-4.477,19.242-1.015,4.818,2.919,7.496,8.695,8.742,14.001,2.461,10.484-1.089,23.486-8.755,31.051,2.178-2.149,6.995-5.08,9.792-7.841,7.47-7.371,11.429-19.816,9.335-30.199-1.066-5.286-3.403-11.091-7.826-14.447-5.795-4.398-14.437-2.97-20.42.263-3.773,2.038-6.4,6.183-10.11,8.187h0Z"/><path d="M671.396,232.657c-5.592,3.021-13.528,4.477-19.242,1.015-4.818-2.919-7.496-8.695-8.742-14.001-2.461-10.484,1.089-23.486,8.755-31.051-2.178,2.149-6.995,5.08-9.792,7.841-7.47,7.371-11.429,19.816-9.335,30.199,1.066,5.286,3.403,11.091,7.826,14.447,5.795,4.398,14.437,2.97,20.42-.263,3.773-2.038,6.4-6.183,10.11-8.187h0Z"/><path d="M691.037,192.831c0,18.377,0,36.754,0,55.132,0-.613,4.568-3.53,5.184-4.029.782-.633,5.019-3.168,5.019-4.233,0-18.377,0-36.754,0-55.132,0,.613-4.568,3.53-5.184,4.029-.782.633-5.019,3.168-5.019,4.233h0Z"/><path d="M693.941,198.245c7.321-4.479,19.101-6.969,27.089-2.797,4.07,2.126,4.706,4.812,4.601,9.249-.114,4.837.12,9.666.136,14.503-.002-.609,4.582-3.541,5.197-4.039.78-.631,5.035-3.181,5.031-4.244-.016-4.838-.251-9.666-.136-14.503.121-5.12-1.024-7.89-5.925-9.898-8.136-3.333-18.997-.703-26.174,3.688-3.352,2.051-7.223,6.453-9.819,8.041h0Z"/><path d="M725.805,213.495c0,11.489,0,22.979,0,34.468,0-.611,4.551-3.517,5.165-4.015.779-.63,5.001-3.157,5.001-4.218,0-11.489,0-22.979,0-34.468,0,.611-4.551,3.517-5.165,4.015-.779.63-5.001,3.157-5.001,4.218h0Z"/><path d="M739.092,193.872c13.343,0,26.687,0,40.03,0,1.248,0,4.146-3.191,5.109-3.971.902-.73,3.819-4.172,4.947-4.172-13.343,0-26.687,0-40.03,0-1.248,0-4.146,3.191-5.109,3.971-.902.73-3.819,4.172-4.947,4.172h0Z"/><path d="M753.147,227.956c-.124,5.389-.785,13.353,5.23,16.088,5.152,2.342,9.334.684,14.086-1.57,1.84-.872,3.564-2.719,5.139-3.994,1.521-1.231,3.217-3.362,4.975-4.196-4.756,2.256-8.926,3.911-14.086,1.57-6.013-2.728-5.353-10.706-5.23-16.088-.015.642-4.507,3.483-5.139,3.994-.8.648-4.95,3.104-4.975,4.196h0Z"/><path d="M763.234,220.627c0-18.945,0-37.889,0-56.834,0,.604-4.504,3.481-5.112,3.973-.771.624-4.949,3.124-4.949,4.174,0,18.945,0,37.889,0,56.834,0-.604,4.504-3.481,5.112-3.973.771-.624,4.949-3.124,4.949-4.174h0Z"/><path d="M822.548,191.076c-3.666-7.513-14.652-8.161-21.376-4.577-3.063,1.633-5.672,3.927-8.369,6.151-3.261,2.69-5.25,4.449-4.972,9.079.307,5.099,1.816,7.064,5.981,9.707,2.074,1.316,3.902,2.98,5.973,4.294,2.059,1.306,4.363,2.12,6.437,3.403,3.899,2.412,8.131,6.603,9.383,11.145,1.065,3.864.885,9.881-1.494,13.165l1.439-1.285-1.057.901c2.93-2.333,5.859-4.665,8.789-6.998-9.881,5.052-23.799-.798-28.465-10.281.345.701-10.743,7.237-10.229,8.283,4.322,8.782,13.968,12.554,23.456,11.595,4.454-.45,6.823-2.614,10.206-5.353,3.286-2.661,7.166-4.885,7.784-9.379,1.544-11.231-4.871-17.559-14.181-22.418-2.175-1.135-4.033-2.701-6.02-4.123-1.738-1.244-3.843-2.133-5.366-3.656-2.88-2.88-3.837-10.516-.666-13.546-3.356,2.703-6.712,5.405-10.068,8.108,7.151-3.503,18.514-4.273,22.585,4.069-.349-.715,10.746-7.223,10.229-8.283h0Z"/><path d="M834.84,193.014c0,18.316,0,36.633,0,54.949,0-.61,4.549-3.516,5.163-4.013.779-.63,4.999-3.156,4.999-4.216,0-18.316,0-36.633,0-54.949,0,.61-4.549,3.516-5.163,4.013-.779.63-4.999,3.156-4.999,4.216h0Z"/><path d="M834.891,164.338c0,5.676,0,11.351,0,17.027,0-.604,4.504-3.481,5.112-3.973.771-.624,4.949-3.124,4.949-4.174,0-5.676,0-11.351,0-17.027,0,.604-4.504,3.481-5.112,3.973-.771.624-4.949,3.124-4.949,4.174h0Z"/><path d="M855.242,191.514c7.493,18.603,14.987,37.207,22.48,55.81-.409-1.016,10.738-6.887,10.189-8.251-7.493-18.603-14.987-37.207-22.48-55.81.409,1.016-10.738,6.887-10.189,8.251h0Z"/><path d="M897.068,191.379c-6.065,18.229-12.13,36.459-18.195,54.688.368-1.107,4.099-3.154,5.067-3.938,1.17-.947,4.41-2.647,4.905-4.137,6.065-18.229,12.13-36.459,18.195-54.688-.368,1.107-4.099,3.154-5.067,3.938-1.17.947-4.41,2.647-4.905,4.137h0Z"/><line class="cls-1" x1="118.053" y1="142.671" x2="1035.214" y2="142.671"/><line class="cls-1" x1="118.053" y1="185.82" x2="1035.214" y2="185.82"/><line class="cls-1" x1="118.053" y1="248.594" x2="1035.214" y2="248.594"/><line class="cls-1" x1="118.053" y1="193.044" x2="1035.214" y2="193.044"/><rect class="cls-2" x="961.856" y="128.197" width="73.357" height="14.128"/><path d="M969.519,139.606c-.448.225-1.345.448-2.493.448-2.662,0-4.665-1.681-4.665-4.776,0-2.955,2.003-4.958,4.931-4.958,1.177,0,1.919.252,2.241.42l-.294.994c-.462-.224-1.121-.392-1.905-.392-2.213,0-3.684,1.414-3.684,3.894,0,2.312,1.331,3.796,3.628,3.796.743,0,1.499-.153,1.989-.392l.252.966Z"/><path d="M972.624,136.945l-.98,2.97h-1.261l3.208-9.441h1.471l3.222,9.441h-1.303l-1.009-2.97h-3.348ZM975.719,135.993l-.924-2.718c-.21-.616-.35-1.177-.49-1.723h-.028c-.14.561-.294,1.135-.476,1.709l-.924,2.731h2.843Z"/><path d="M979.665,130.586c.588-.098,1.359-.182,2.339-.182,1.205,0,2.087.279,2.647.784.518.448.827,1.135.827,1.975,0,.854-.252,1.527-.729,2.018-.645.687-1.695,1.036-2.886,1.036-.364,0-.7-.014-.98-.084v3.782h-1.219v-9.329ZM980.883,135.139c.266.07.603.098,1.009.098,1.471,0,2.367-.714,2.367-2.017,0-1.247-.883-1.85-2.228-1.85-.532,0-.938.042-1.148.099v3.67Z"/><path d="M989.689,135.671v.91h-3.459v-.91h3.459Z"/><path d="M992.391,130.474v3.95h4.566v-3.95h1.233v9.441h-1.233v-4.427h-4.566v4.427h-1.219v-9.441h1.219Z"/><path d="M1005.188,135.488h-3.67v3.404h4.09v1.022h-5.309v-9.441h5.099v1.022h-3.88v2.984h3.67v1.008Z"/><path d="M1008.406,130.474v9.441h-1.219v-9.441h1.219Z"/><path d="M1017.72,139.495c-.546.196-1.625.518-2.899.518-1.429,0-2.605-.364-3.53-1.246-.812-.784-1.316-2.045-1.316-3.516.014-2.816,1.947-4.875,5.113-4.875,1.092,0,1.947.238,2.353.435l-.294.994c-.504-.225-1.135-.406-2.087-.406-2.297,0-3.796,1.429-3.796,3.796,0,2.396,1.443,3.811,3.642,3.811.798,0,1.345-.112,1.625-.253v-2.815h-1.919v-.98h3.11v4.539Z"/><path d="M1020.796,130.474v3.95h4.566v-3.95h1.233v9.441h-1.233v-4.427h-4.566v4.427h-1.219v-9.441h1.219Z"/><path d="M1030.499,131.511h-2.872v-1.037h6.99v1.037h-2.885v8.404h-1.233v-8.404Z"/><rect class="cls-2" x="977.682" y="170.32" width="57.532" height="14.768"/><path d="M983.915,182.038l-1.205-2.087c-.49-.799-.798-1.317-1.093-1.863h-.028c-.266.546-.532,1.051-1.022,1.877l-1.135,2.073h-1.401l2.886-4.776-2.773-4.665h1.415l1.247,2.214c.351.616.617,1.092.869,1.597h.042c.266-.561.504-.995.854-1.597l1.289-2.214h1.401l-2.872,4.595,2.941,4.847h-1.415Z"/><path d="M989.262,177.794v.91h-3.459v-.91h3.459Z"/><path d="M991.963,172.597v3.95h4.566v-3.95h1.233v9.441h-1.233v-4.427h-4.566v4.427h-1.219v-9.441h1.219Z"/><path d="M1004.761,177.611h-3.67v3.404h4.09v1.022h-5.309v-9.441h5.099v1.022h-3.88v2.984h3.67v1.008Z"/><path d="M1007.979,172.597v9.441h-1.219v-9.441h1.219Z"/><path d="M1017.292,181.618c-.546.196-1.625.518-2.899.518-1.429,0-2.605-.364-3.53-1.246-.812-.784-1.316-2.045-1.316-3.516.014-2.816,1.947-4.875,5.113-4.875,1.092,0,1.947.238,2.353.435l-.294.994c-.504-.225-1.135-.406-2.087-.406-2.297,0-3.796,1.429-3.796,3.796,0,2.396,1.443,3.811,3.642,3.811.798,0,1.345-.112,1.625-.253v-2.815h-1.919v-.98h3.11v4.539Z"/><path d="M1020.369,172.597v3.95h4.566v-3.95h1.233v9.441h-1.233v-4.427h-4.566v4.427h-1.219v-9.441h1.219Z"/><path d="M1030.071,173.634h-2.872v-1.037h6.99v1.037h-2.885v8.404h-1.233v-8.404Z"/><rect class="cls-2" x="978.986" y="232.802" width="56.227" height="15.19"/><path d="M980.051,235.204c.532-.111,1.373-.195,2.228-.195,1.218,0,2.003.21,2.591.686.49.364.784.925.784,1.667,0,.911-.602,1.709-1.597,2.073v.028c.896.224,1.947.967,1.947,2.367,0,.812-.322,1.429-.798,1.891-.658.603-1.723.883-3.264.883-.84,0-1.485-.056-1.891-.112v-9.287ZM981.27,239.07h1.106c1.289,0,2.045-.672,2.045-1.583,0-1.106-.841-1.54-2.073-1.54-.561,0-.882.042-1.079.084v3.039ZM981.27,243.595c.238.042.588.057,1.022.057,1.261,0,2.423-.463,2.423-1.835,0-1.289-1.106-1.821-2.437-1.821h-1.009v3.6Z"/><path d="M989.166,241.55l-.98,2.97h-1.261l3.208-9.441h1.471l3.222,9.441h-1.303l-1.009-2.97h-3.348ZM992.261,240.598l-.924-2.718c-.21-.616-.35-1.177-.49-1.723h-.028c-.14.561-.294,1.135-.476,1.709l-.924,2.731h2.843Z"/><path d="M996.039,243.035c.546.336,1.345.616,2.185.616,1.247,0,1.975-.658,1.975-1.611,0-.883-.504-1.387-1.779-1.877-1.541-.546-2.494-1.345-2.494-2.676,0-1.471,1.219-2.562,3.054-2.562.967,0,1.667.224,2.087.462l-.336.994c-.308-.168-.938-.448-1.793-.448-1.289,0-1.779.771-1.779,1.415,0,.883.574,1.316,1.877,1.821,1.597.616,2.409,1.387,2.409,2.773,0,1.457-1.079,2.717-3.306,2.717-.911,0-1.905-.266-2.409-.602l.308-1.022Z"/><path d="M1007.997,240.093h-3.67v3.404h4.09v1.022h-5.309v-9.441h5.099v1.022h-3.88v2.984h3.67v1.008Z"/><path d="M1009.996,235.078h1.219v8.419h4.034v1.022h-5.253v-9.441Z"/><path d="M1017.823,235.078v9.441h-1.219v-9.441h1.219Z"/><path d="M1019.95,244.52v-9.441h1.331l3.025,4.777c.7,1.106,1.247,2.101,1.695,3.067l.028-.015c-.112-1.26-.14-2.409-.14-3.88v-3.95h1.148v9.441h-1.232l-2.998-4.791c-.659-1.05-1.289-2.129-1.765-3.151l-.042.014c.07,1.191.098,2.326.098,3.895v4.034h-1.149Z"/><path d="M1034.051,240.093h-3.67v3.404h4.09v1.022h-5.309v-9.441h5.099v1.022h-3.88v2.984h3.67v1.008Z"/><line class="cls-1" x1="118.053" y1="286.605" x2="1035.214" y2="286.605"/><rect class="cls-2" x="937.969" y="270.216" width="97.245" height="15.685"/><path d="M939.033,272.618c.743-.111,1.625-.195,2.591-.195,1.751,0,2.998.406,3.824,1.176.84.771,1.331,1.863,1.331,3.391,0,1.54-.476,2.801-1.358,3.67-.883.882-2.339,1.358-4.174,1.358-.869,0-1.597-.042-2.213-.112v-9.287ZM940.252,280.967c.308.057.756.07,1.233.07,2.605,0,4.02-1.457,4.02-4.006.014-2.228-1.247-3.643-3.824-3.643-.63,0-1.106.057-1.429.126v7.452Z"/><path d="M953.246,277.507h-3.67v3.404h4.09v1.022h-5.309v-9.441h5.099v1.022h-3.88v2.984h3.67v1.008Z"/><path d="M955.077,280.449c.546.336,1.345.616,2.185.616,1.247,0,1.975-.658,1.975-1.611,0-.882-.504-1.387-1.779-1.877-1.541-.546-2.494-1.345-2.494-2.676,0-1.471,1.219-2.562,3.054-2.562.967,0,1.667.224,2.087.462l-.336.994c-.308-.168-.938-.448-1.793-.448-1.289,0-1.779.771-1.779,1.415,0,.883.574,1.316,1.877,1.821,1.597.616,2.409,1.387,2.409,2.773,0,1.456-1.079,2.717-3.306,2.717-.911,0-1.905-.266-2.409-.602l.308-1.022Z"/><path d="M968.744,281.625c-.448.225-1.345.448-2.493.448-2.662,0-4.665-1.681-4.665-4.776,0-2.955,2.003-4.958,4.931-4.958,1.177,0,1.919.252,2.241.42l-.294.994c-.462-.224-1.121-.392-1.905-.392-2.213,0-3.684,1.414-3.684,3.894,0,2.312,1.331,3.796,3.628,3.796.743,0,1.499-.153,1.989-.392l.252.966Z"/><path d="M975.155,277.507h-3.67v3.404h4.09v1.022h-5.309v-9.441h5.099v1.022h-3.88v2.984h3.67v1.008Z"/><path d="M977.154,281.934v-9.441h1.331l3.025,4.777c.7,1.106,1.247,2.101,1.695,3.067l.028-.015c-.112-1.26-.14-2.409-.14-3.88v-3.95h1.148v9.441h-1.232l-2.998-4.791c-.658-1.05-1.289-2.129-1.765-3.151l-.042.014c.07,1.191.098,2.325.098,3.895v4.034h-1.149Z"/><path d="M986.366,272.618c.743-.111,1.625-.195,2.591-.195,1.751,0,2.998.406,3.824,1.176.84.771,1.331,1.863,1.331,3.391,0,1.54-.476,2.801-1.358,3.67-.883.882-2.339,1.358-4.174,1.358-.869,0-1.597-.042-2.213-.112v-9.287ZM987.584,280.967c.308.057.756.07,1.233.07,2.605,0,4.02-1.457,4.02-4.006.014-2.228-1.247-3.643-3.824-3.643-.63,0-1.106.057-1.429.126v7.452Z"/><path d="M1000.578,277.507h-3.67v3.404h4.09v1.022h-5.309v-9.441h5.099v1.022h-3.88v2.984h3.67v1.008Z"/><path d="M1002.577,272.618c.617-.126,1.499-.195,2.339-.195,1.303,0,2.143.237,2.731.771.477.42.743,1.064.743,1.793,0,1.246-.785,2.072-1.779,2.409v.042c.729.252,1.163.924,1.387,1.904.308,1.317.532,2.228.729,2.592h-1.261c-.154-.267-.364-1.078-.63-2.255-.28-1.303-.784-1.793-1.891-1.835h-1.148v4.09h-1.219v-9.315ZM1003.796,276.919h1.247c1.303,0,2.129-.715,2.129-1.793,0-1.219-.883-1.751-2.171-1.765-.588,0-1.008.056-1.205.111v3.446Z"/><path d="M1010.109,272.492h1.219v8.419h4.034v1.022h-5.253v-9.441Z"/><path d="M1017.936,272.492v9.441h-1.219v-9.441h1.219Z"/><path d="M1020.063,281.934v-9.441h1.331l3.025,4.777c.7,1.106,1.247,2.101,1.695,3.067l.028-.015c-.112-1.26-.14-2.409-.14-3.88v-3.95h1.148v9.441h-1.232l-2.998-4.791c-.658-1.05-1.289-2.129-1.765-3.151l-.042.014c.07,1.191.098,2.325.098,3.895v4.034h-1.149Z"/><path d="M1034.164,277.507h-3.67v3.404h4.09v1.022h-5.309v-9.441h5.099v1.022h-3.88v2.984h3.67v1.008Z"/><rect class="cls-2" x="972.887" y="194.314" width="62.327" height="14.794"/><path d="M981.908,201.886c-.07-1.316-.154-2.899-.14-4.076h-.042c-.322,1.106-.714,2.283-1.191,3.586l-1.667,4.581h-.925l-1.527-4.497c-.448-1.33-.826-2.549-1.092-3.67h-.028c-.028,1.177-.098,2.76-.182,4.175l-.252,4.048h-1.163l.658-9.441h1.555l1.611,4.566c.392,1.163.714,2.199.952,3.18h.042c.238-.952.575-1.988.995-3.18l1.681-4.566h1.555l.588,9.441h-1.191l-.238-4.146Z"/><path d="M990.096,201.605h-3.67v3.404h4.09v1.022h-5.309v-9.441h5.099v1.022h-3.88v2.984h3.67v1.008Z"/><path d="M993.622,203.062l-.98,2.97h-1.261l3.208-9.441h1.471l3.222,9.441h-1.303l-1.009-2.97h-3.348ZM996.717,202.11l-.924-2.718c-.21-.616-.35-1.177-.49-1.723h-.028c-.14.561-.294,1.135-.476,1.709l-.924,2.731h2.843Z"/><path d="M1000.663,206.032v-9.441h1.331l3.025,4.777c.7,1.106,1.247,2.101,1.695,3.067l.028-.015c-.112-1.26-.14-2.409-.14-3.88v-3.95h1.148v9.441h-1.232l-2.998-4.791c-.658-1.05-1.289-2.129-1.765-3.151l-.042.014c.07,1.191.098,2.325.098,3.895v4.034h-1.149Z"/><path d="M1009.875,196.591h1.219v8.419h4.034v1.022h-5.253v-9.441Z"/><path d="M1017.701,196.591v9.441h-1.219v-9.441h1.219Z"/><path d="M1019.829,206.032v-9.441h1.331l3.025,4.777c.7,1.106,1.247,2.101,1.695,3.067l.028-.015c-.112-1.26-.14-2.409-.14-3.88v-3.95h1.148v9.441h-1.232l-2.998-4.791c-.658-1.05-1.289-2.129-1.765-3.151l-.042.014c.07,1.191.098,2.325.098,3.895v4.034h-1.149Z"/><path d="M1033.929,201.605h-3.67v3.404h4.09v1.022h-5.309v-9.441h5.099v1.022h-3.88v2.984h3.67v1.008Z"/><line class="cls-3" x1="332.124" y1="145.37" x2="332.124" y2="95.37"/><circle class="cls-4" cx="332.124" cy="148.37" r="3.5"/><rect class="cls-2" x="304.722" y="81.479" width="54.803" height="13.62"/><path d="M307.314,90.228l-.98,2.97h-1.261l3.208-9.441h1.471l3.222,9.441h-1.303l-1.008-2.97h-3.348ZM310.41,89.275l-.924-2.718c-.21-.616-.35-1.177-.49-1.723h-.028c-.14.561-.294,1.135-.476,1.709l-.924,2.731h2.843Z"/><path d="M314.061,91.937c.364.238,1.008.49,1.625.49.896,0,1.316-.448,1.316-1.009,0-.588-.35-.91-1.261-1.246-1.218-.435-1.793-1.106-1.793-1.919,0-1.093.883-1.989,2.339-1.989.687,0,1.289.196,1.667.42l-.308.896c-.266-.168-.756-.392-1.387-.392-.729,0-1.135.42-1.135.924,0,.561.406.812,1.289,1.148,1.177.448,1.779,1.037,1.779,2.046,0,1.19-.925,2.03-2.536,2.03-.742,0-1.429-.182-1.905-.462l.308-.938Z"/><path d="M324.605,92.945c-.322.168-1.036.392-1.947.392-2.045,0-3.376-1.387-3.376-3.459,0-2.088,1.429-3.601,3.642-3.601.729,0,1.373.183,1.709.351l-.28.952c-.294-.168-.756-.322-1.429-.322-1.555,0-2.396,1.148-2.396,2.563,0,1.569,1.009,2.535,2.354,2.535.7,0,1.163-.182,1.513-.336l.21.925Z"/><path d="M326.647,90.031c.028,1.667,1.093,2.354,2.325,2.354.882,0,1.415-.154,1.877-.351l.21.883c-.434.196-1.176.42-2.255.42-2.087,0-3.334-1.372-3.334-3.417s1.205-3.656,3.18-3.656c2.213,0,2.802,1.947,2.802,3.193,0,.252-.028.448-.042.574h-4.763ZM330.261,89.149c.014-.785-.322-2.003-1.709-2.003-1.247,0-1.793,1.148-1.891,2.003h3.6Z"/><path d="M332.975,88.253c0-.701-.014-1.275-.056-1.835h1.093l.07,1.12h.028c.336-.645,1.121-1.274,2.241-1.274.938,0,2.395.561,2.395,2.886v4.048h-1.232v-3.908c0-1.093-.406-2.003-1.569-2.003-.812,0-1.443.574-1.653,1.261-.056.154-.084.364-.084.574v4.076h-1.233v-4.944Z"/><path d="M346.6,83.252v8.194c0,.603.014,1.289.056,1.751h-1.106l-.056-1.177h-.028c-.378.757-1.205,1.331-2.312,1.331-1.639,0-2.899-1.387-2.899-3.446-.014-2.255,1.387-3.642,3.04-3.642,1.037,0,1.737.49,2.045,1.036h.028v-4.048h1.233ZM345.367,89.177c0-.153-.014-.364-.056-.518-.182-.785-.854-1.429-1.779-1.429-1.275,0-2.031,1.12-2.031,2.619,0,1.373.672,2.507,2.003,2.507.826,0,1.583-.546,1.807-1.471.042-.168.056-.336.056-.532v-1.177Z"/><path d="M349.327,90.031c.028,1.667,1.093,2.354,2.325,2.354.882,0,1.415-.154,1.877-.351l.21.883c-.434.196-1.176.42-2.255.42-2.087,0-3.334-1.372-3.334-3.417s1.205-3.656,3.18-3.656c2.213,0,2.802,1.947,2.802,3.193,0,.252-.028.448-.042.574h-4.763ZM352.941,89.149c.014-.785-.322-2.003-1.709-2.003-1.247,0-1.793,1.148-1.891,2.003h3.6Z"/><path d="M355.654,88.533c0-.799-.014-1.485-.056-2.115h1.079l.042,1.33h.056c.308-.91,1.051-1.484,1.877-1.484.14,0,.238.014.35.042v1.162c-.126-.027-.252-.042-.42-.042-.869,0-1.485.659-1.653,1.583-.028.168-.056.364-.056.574v3.614h-1.219v-4.664Z"/><line class="cls-3" x1="484.579" y1="268.703" x2="484.579" y2="318.703"/><circle class="cls-4" cx="484.579" cy="266.645" r="3.5"/><rect class="cls-2" x="446.878" y="318.984" width="63.402" height="16.125"/><path d="M447.943,321.387c.743-.111,1.625-.195,2.591-.195,1.751,0,2.998.406,3.824,1.176.84.771,1.331,1.863,1.331,3.391,0,1.54-.476,2.801-1.358,3.67-.883.882-2.339,1.358-4.174,1.358-.869,0-1.597-.042-2.213-.112v-9.287ZM449.162,329.735c.308.057.756.07,1.233.07,2.605,0,4.02-1.457,4.02-4.006.014-2.228-1.247-3.643-3.824-3.643-.63,0-1.106.057-1.429.126v7.452Z"/><path d="M457.967,327.536c.028,1.667,1.092,2.354,2.325,2.354.882,0,1.415-.154,1.877-.351l.21.883c-.434.196-1.176.42-2.255.42-2.087,0-3.334-1.372-3.334-3.417s1.205-3.656,3.18-3.656c2.213,0,2.802,1.947,2.802,3.193,0,.252-.028.448-.042.574h-4.763ZM461.581,326.654c.014-.785-.322-2.004-1.709-2.004-1.247,0-1.793,1.149-1.891,2.004h3.6Z"/><path d="M464.126,329.441c.364.238,1.008.49,1.625.49.896,0,1.316-.448,1.316-1.009,0-.588-.35-.91-1.261-1.246-1.218-.435-1.793-1.106-1.793-1.919,0-1.093.883-1.989,2.339-1.989.687,0,1.289.196,1.667.42l-.308.896c-.266-.168-.756-.392-1.387-.392-.729,0-1.135.42-1.135.924,0,.561.406.812,1.289,1.148,1.177.448,1.779,1.037,1.779,2.046,0,1.19-.925,2.03-2.536,2.03-.742,0-1.429-.182-1.905-.462l.308-.938Z"/><path d="M474.671,330.45c-.322.168-1.036.392-1.947.392-2.045,0-3.376-1.387-3.376-3.459,0-2.088,1.429-3.601,3.642-3.601.729,0,1.373.183,1.709.351l-.28.952c-.294-.168-.756-.322-1.429-.322-1.555,0-2.396,1.148-2.396,2.563,0,1.569,1.009,2.535,2.354,2.535.7,0,1.163-.182,1.513-.336l.21.925Z"/><path d="M476.713,327.536c.028,1.667,1.093,2.354,2.325,2.354.882,0,1.415-.154,1.877-.351l.21.883c-.434.196-1.176.42-2.255.42-2.087,0-3.334-1.372-3.334-3.417s1.205-3.656,3.18-3.656c2.213,0,2.802,1.947,2.802,3.193,0,.252-.028.448-.042.574h-4.763ZM480.327,326.654c.014-.785-.322-2.004-1.709-2.004-1.247,0-1.793,1.149-1.891,2.004h3.6Z"/><path d="M483.04,325.758c0-.701-.014-1.275-.056-1.835h1.093l.07,1.12h.028c.336-.645,1.121-1.274,2.241-1.274.938,0,2.395.561,2.395,2.886v4.048h-1.232v-3.908c0-1.093-.406-2.003-1.569-2.003-.812,0-1.443.574-1.653,1.261-.056.154-.084.364-.084.574v4.076h-1.233v-4.944Z"/><path d="M496.666,320.757v8.194c0,.603.014,1.289.056,1.751h-1.106l-.056-1.177h-.028c-.378.757-1.205,1.331-2.312,1.331-1.639,0-2.899-1.387-2.899-3.446-.014-2.255,1.387-3.642,3.04-3.642,1.037,0,1.737.49,2.045,1.036h.028v-4.048h1.233ZM495.433,326.682c0-.153-.014-.364-.056-.518-.182-.785-.854-1.429-1.779-1.429-1.275,0-2.031,1.12-2.031,2.619,0,1.373.672,2.507,2.003,2.507.826,0,1.583-.546,1.807-1.471.042-.168.056-.336.056-.532v-1.177Z"/><path d="M499.393,327.536c.028,1.667,1.093,2.354,2.325,2.354.882,0,1.415-.154,1.877-.351l.21.883c-.434.196-1.176.42-2.255.42-2.087,0-3.334-1.372-3.334-3.417s1.205-3.656,3.18-3.656c2.213,0,2.802,1.947,2.802,3.193,0,.252-.028.448-.042.574h-4.763ZM503.006,326.654c.014-.785-.322-2.004-1.709-2.004-1.247,0-1.793,1.149-1.891,2.004h3.6Z"/><path d="M505.72,326.038c0-.799-.014-1.485-.056-2.115h1.079l.042,1.33h.056c.308-.91,1.051-1.484,1.877-1.484.14,0,.238.014.35.042v1.162c-.126-.027-.252-.042-.42-.042-.869,0-1.485.659-1.653,1.583-.028.168-.056.364-.056.574v3.614h-1.219v-4.664Z"/><line class="cls-3" x1="527.767" y1="278.232" x2="527.767" y2="318.703"/><circle class="cls-4" cx="527.767" cy="275.232" r="3.5"/><rect class="cls-2" x="512.568" y="319.176" width="30.399" height="15.933"/><path d="M513.633,321.453h1.219v8.419h4.034v1.022h-5.253v-9.441Z"/><path d="M526.138,327.448c0,2.508-1.737,3.601-3.375,3.601-1.835,0-3.25-1.345-3.25-3.488,0-2.27,1.485-3.6,3.362-3.6,1.947,0,3.264,1.415,3.264,3.487ZM520.759,327.519c0,1.485.854,2.605,2.059,2.605,1.177,0,2.059-1.106,2.059-2.634,0-1.148-.574-2.604-2.031-2.604s-2.087,1.345-2.087,2.633Z"/><path d="M533.824,327.448c0,2.508-1.737,3.601-3.375,3.601-1.835,0-3.25-1.345-3.25-3.488,0-2.27,1.485-3.6,3.362-3.6,1.947,0,3.264,1.415,3.264,3.487ZM528.445,327.519c0,1.485.854,2.605,2.059,2.605,1.177,0,2.059-1.106,2.059-2.634,0-1.148-.574-2.604-2.031-2.604s-2.087,1.345-2.087,2.633Z"/><path d="M535.375,326.328c0-.868-.028-1.569-.056-2.213h1.107l.056,1.162h.028c.504-.826,1.303-1.316,2.409-1.316,1.639,0,2.872,1.387,2.872,3.445,0,2.438-1.485,3.643-3.082,3.643-.896,0-1.681-.393-2.087-1.064h-.028v3.684h-1.219v-7.34ZM536.594,328.135c0,.183.028.351.056.505.224.854.966,1.442,1.849,1.442,1.302,0,2.059-1.064,2.059-2.619,0-1.359-.714-2.521-2.017-2.521-.841,0-1.625.603-1.863,1.526-.042.154-.084.337-.084.505v1.162Z"/><rect class="cls-2" x="445.622" y="287.589" width="24.699" height="13.479"/><path d="M446.687,289.865h1.219v8.419h4.034v1.022h-5.253v-9.441Z"/><path d="M454.626,290.622c.014.42-.295.756-.785.756-.434,0-.742-.336-.742-.756,0-.435.322-.771.771-.771.462,0,.757.336.757.771ZM453.253,299.307v-6.779h1.232v6.779h-1.232Z"/><path d="M456.528,294.362c0-.701-.014-1.275-.056-1.835h1.093l.07,1.12h.027c.336-.645,1.121-1.274,2.241-1.274.938,0,2.396.561,2.396,2.886v4.048h-1.232v-3.908c0-1.093-.406-2.003-1.569-2.003-.812,0-1.442.574-1.652,1.261-.057.154-.084.364-.084.574v4.076h-1.233v-4.944Z"/><path d="M465.518,295.637h.027c.169-.238.406-.532.603-.771l1.989-2.339h1.484l-2.619,2.787,2.983,3.992h-1.498l-2.34-3.25-.63.7v2.55h-1.219v-9.945h1.219v6.275Z"/><line class="cls-3" x1="715.537" y1="184.41" x2="715.537" y2="134.41"/><circle class="cls-4" cx="715.537" cy="187.41" r="3.5"/><rect class="cls-2" x="688.779" y="118.519" width="53.515" height="14.301"/><path d="M689.676,128.753c.546.336,1.345.616,2.185.616,1.247,0,1.975-.658,1.975-1.611,0-.882-.504-1.387-1.779-1.877-1.541-.546-2.494-1.345-2.494-2.676,0-1.471,1.219-2.562,3.054-2.562.967,0,1.667.224,2.087.462l-.336.994c-.308-.168-.938-.448-1.793-.448-1.289,0-1.779.771-1.779,1.415,0,.883.574,1.316,1.877,1.821,1.597.616,2.409,1.387,2.409,2.773,0,1.456-1.079,2.717-3.306,2.717-.911,0-1.905-.266-2.409-.602l.308-1.022Z"/><path d="M696.704,120.292h1.233v4.23h.028c.196-.351.504-.658.882-.869.364-.21.799-.35,1.261-.35.911,0,2.367.561,2.367,2.899v4.034h-1.232v-3.895c0-1.092-.406-2.017-1.569-2.017-.798,0-1.429.561-1.653,1.232-.07.168-.084.351-.084.589v4.09h-1.233v-9.945Z"/><path d="M710.609,126.791c0,2.508-1.737,3.601-3.375,3.601-1.835,0-3.25-1.345-3.25-3.488,0-2.27,1.485-3.6,3.362-3.6,1.947,0,3.264,1.415,3.264,3.487ZM705.23,126.861c0,1.485.854,2.605,2.059,2.605,1.177,0,2.059-1.106,2.059-2.634,0-1.148-.574-2.604-2.031-2.604s-2.087,1.345-2.087,2.633Z"/><path d="M717.833,128.389c0,.7.014,1.316.056,1.849h-1.092l-.07-1.106h-.028c-.322.546-1.037,1.261-2.241,1.261-1.064,0-2.339-.589-2.339-2.97v-3.964h1.233v3.754c0,1.288.392,2.157,1.513,2.157.826,0,1.401-.574,1.625-1.121.07-.182.112-.406.112-.63v-4.16h1.233v4.931Z"/><path d="M719.874,120.292h1.233v9.945h-1.233v-9.945Z"/><path d="M729.033,120.292v8.194c0,.603.014,1.289.056,1.751h-1.106l-.056-1.177h-.028c-.378.757-1.205,1.331-2.312,1.331-1.639,0-2.899-1.387-2.899-3.446-.014-2.255,1.387-3.642,3.04-3.642,1.037,0,1.737.49,2.045,1.036h.028v-4.048h1.233ZM727.8,126.217c0-.153-.014-.364-.056-.518-.182-.785-.854-1.429-1.779-1.429-1.275,0-2.031,1.12-2.031,2.619,0,1.373.672,2.507,2.003,2.507.826,0,1.583-.546,1.807-1.471.042-.168.056-.336.056-.532v-1.177Z"/><path d="M731.76,127.071c.028,1.667,1.093,2.354,2.325,2.354.882,0,1.415-.154,1.877-.351l.21.883c-.434.196-1.176.42-2.255.42-2.087,0-3.334-1.372-3.334-3.417s1.205-3.656,3.18-3.656c2.213,0,2.802,1.947,2.802,3.193,0,.252-.028.448-.042.574h-4.763ZM735.374,126.189c.014-.785-.322-2.003-1.709-2.003-1.247,0-1.793,1.148-1.891,2.003h3.6Z"/><path d="M738.087,125.573c0-.799-.014-1.485-.056-2.115h1.079l.042,1.33h.056c.308-.91,1.051-1.484,1.877-1.484.14,0,.238.014.35.042v1.162c-.126-.027-.252-.042-.42-.042-.869,0-1.485.659-1.653,1.583-.028.168-.056.364-.056.574v3.614h-1.219v-4.664Z"/><line class="cls-3" x1="575.984" y1="241.539" x2="575.984" y2="287.588"/><circle class="cls-4" cx="575.984" cy="240.539" r="3.5"/><rect class="cls-2" x="550.556" y="287.588" width="50.868" height="15.853"/><path d="M553.414,290.902h-2.872v-1.037h6.99v1.037h-2.885v8.404h-1.233v-8.404Z"/><path d="M558.229,296.141c.028,1.666,1.092,2.354,2.325,2.354.882,0,1.415-.154,1.877-.352l.21.883c-.434.197-1.176.42-2.255.42-2.087,0-3.334-1.371-3.334-3.416s1.205-3.656,3.18-3.656c2.213,0,2.802,1.947,2.802,3.193,0,.252-.028.447-.042.574h-4.763ZM561.843,295.258c.014-.785-.322-2.004-1.709-2.004-1.247,0-1.793,1.15-1.891,2.004h3.6Z"/><path d="M564.556,294.643c0-.799-.014-1.486-.056-2.115h1.079l.042,1.33h.056c.308-.91,1.051-1.484,1.877-1.484.14,0,.238.014.351.041v1.162c-.126-.027-.252-.041-.42-.041-.869,0-1.485.658-1.653,1.582-.028.168-.056.365-.056.574v3.615h-1.219v-4.664Z"/><path d="M569.19,294.361c0-.701-.014-1.275-.056-1.834h1.079l.056,1.092h.042c.378-.645,1.009-1.246,2.129-1.246.924,0,1.625.561,1.919,1.357h.028c.21-.377.477-.672.756-.881.406-.309.854-.477,1.499-.477.896,0,2.227.588,2.227,2.941v3.992h-1.205v-3.838c0-1.303-.476-2.088-1.471-2.088-.7,0-1.247.518-1.457,1.121-.056.168-.098.393-.098.615v4.189h-1.205v-4.062c0-1.078-.476-1.863-1.415-1.863-.771,0-1.331.617-1.527,1.232-.07.182-.098.393-.098.604v4.09h-1.205v-4.945Z"/><path d="M582.239,290.621c.014.42-.294.756-.785.756-.434,0-.742-.336-.742-.756,0-.434.322-.77.77-.77.462,0,.757.336.757.77ZM580.866,299.307v-6.779h1.233v6.779h-1.233Z"/><path d="M584.142,294.361c0-.701-.014-1.275-.056-1.834h1.093l.07,1.119h.028c.336-.645,1.121-1.273,2.241-1.273.938,0,2.395.561,2.395,2.885v4.049h-1.232v-3.908c0-1.094-.406-2.004-1.569-2.004-.812,0-1.443.574-1.653,1.262-.056.154-.084.363-.084.574v4.076h-1.233v-4.945Z"/><path d="M595.666,299.307l-.098-.855h-.042c-.378.533-1.107,1.01-2.073,1.01-1.373,0-2.073-.967-2.073-1.947,0-1.639,1.457-2.535,4.076-2.521v-.141c0-.561-.154-1.568-1.541-1.568-.63,0-1.289.195-1.765.504l-.28-.812c.561-.363,1.373-.602,2.227-.602,2.073,0,2.578,1.414,2.578,2.773v2.535c0,.588.028,1.162.112,1.625h-1.121ZM595.484,295.846c-1.345-.027-2.872.211-2.872,1.527,0,.799.532,1.176,1.163,1.176.882,0,1.442-.559,1.639-1.133.042-.127.07-.268.07-.393v-1.178Z"/><path d="M598.66,289.361h1.233v9.945h-1.233v-9.945Z"/><line class="cls-3" x1="131.245" y1="145.37" x2="131.245" y2="95.37"/><circle class="cls-4" cx="131.245" cy="148.37" r="3.5"/><rect class="cls-2" x="116.041" y="79.479" width="30.409" height="15.657"/><path d="M116.938,89.713c.547.336,1.345.616,2.186.616,1.246,0,1.975-.658,1.975-1.611,0-.882-.504-1.387-1.778-1.877-1.541-.546-2.494-1.345-2.494-2.676,0-1.471,1.219-2.562,3.054-2.562.967,0,1.667.224,2.088.462l-.337.994c-.308-.168-.938-.448-1.793-.448-1.288,0-1.778.771-1.778,1.415,0,.883.574,1.316,1.877,1.821,1.597.616,2.409,1.387,2.409,2.773,0,1.456-1.079,2.717-3.306,2.717-.911,0-1.905-.266-2.409-.602l.308-1.022Z"/><path d="M125.408,82.471v1.947h1.766v.938h-1.766v3.655c0,.841.238,1.317.925,1.317.322,0,.561-.042.714-.084l.057.924c-.238.099-.616.168-1.093.168-.574,0-1.036-.182-1.331-.518-.35-.364-.476-.967-.476-1.766v-3.697h-1.051v-.938h1.051v-1.625l1.204-.322Z"/><path d="M129.16,88.031c.027,1.667,1.092,2.354,2.325,2.354.882,0,1.414-.154,1.877-.351l.21.883c-.435.196-1.177.42-2.255.42-2.088,0-3.334-1.372-3.334-3.417s1.204-3.656,3.18-3.656c2.213,0,2.802,1.947,2.802,3.193,0,.252-.028.448-.042.574h-4.763ZM132.773,87.149c.015-.785-.322-2.003-1.709-2.003-1.246,0-1.793,1.148-1.891,2.003h3.6Z"/><path d="M135.487,86.253c0-.701-.015-1.275-.057-1.835h1.079l.056,1.092h.042c.379-.644,1.009-1.246,2.13-1.246.924,0,1.624.561,1.919,1.358h.027c.211-.378.477-.672.757-.882.406-.309.854-.477,1.499-.477.896,0,2.227.588,2.227,2.941v3.992h-1.204v-3.838c0-1.303-.477-2.087-1.471-2.087-.7,0-1.247.518-1.457,1.12-.056.168-.098.393-.098.616v4.188h-1.205v-4.062c0-1.078-.477-1.862-1.415-1.862-.771,0-1.33.616-1.526,1.232-.07.182-.099.392-.099.603v4.09h-1.204v-4.944Z"/><line class="cls-3" x1="157.012" y1="192.064" x2="157.012" y2="287.539"/><circle class="cls-4" cx="157.012" cy="189.974" r="3.5"/><rect class="cls-2" x="131.466" y="287.588" width="51.092" height="17.104"/><path d="M139.128,298.998c-.448.225-1.345.447-2.493.447-2.662,0-4.665-1.68-4.665-4.775,0-2.955,2.003-4.959,4.931-4.959,1.176,0,1.919.252,2.241.42l-.294.994c-.462-.223-1.121-.391-1.905-.391-2.213,0-3.684,1.414-3.684,3.893,0,2.312,1.331,3.797,3.628,3.797.742,0,1.499-.154,1.989-.393l.252.967Z"/><path d="M140.566,294.643c0-.799-.014-1.486-.056-2.115h1.079l.042,1.33h.056c.308-.91,1.051-1.484,1.877-1.484.14,0,.238.014.351.041v1.162c-.126-.027-.252-.041-.42-.041-.869,0-1.485.658-1.653,1.582-.028.168-.056.365-.056.574v3.615h-1.219v-4.664Z"/><path d="M151.14,295.859c0,2.508-1.737,3.602-3.375,3.602-1.835,0-3.25-1.346-3.25-3.488,0-2.27,1.485-3.6,3.362-3.6,1.947,0,3.264,1.414,3.264,3.486ZM145.761,295.93c0,1.486.854,2.605,2.059,2.605,1.177,0,2.059-1.105,2.059-2.633,0-1.148-.574-2.605-2.031-2.605s-2.087,1.346-2.087,2.633Z"/><path d="M152.523,298.045c.364.238,1.008.49,1.625.49.896,0,1.316-.447,1.316-1.008,0-.588-.35-.91-1.261-1.246-1.218-.436-1.793-1.107-1.793-1.92,0-1.092.883-1.988,2.339-1.988.687,0,1.289.195,1.667.42l-.308.896c-.266-.168-.756-.393-1.387-.393-.729,0-1.135.42-1.135.924,0,.561.406.812,1.289,1.148,1.177.449,1.779,1.037,1.779,2.047,0,1.189-.925,2.029-2.536,2.029-.742,0-1.429-.182-1.905-.461l.308-.939Z"/><path d="M158.067,298.045c.364.238,1.008.49,1.625.49.896,0,1.316-.447,1.316-1.008,0-.588-.35-.91-1.261-1.246-1.218-.436-1.793-1.107-1.793-1.92,0-1.092.883-1.988,2.339-1.988.687,0,1.289.195,1.667.42l-.308.896c-.266-.168-.756-.393-1.387-.393-.729,0-1.135.42-1.135.924,0,.561.406.812,1.289,1.148,1.177.449,1.779,1.037,1.779,2.047,0,1.189-.925,2.029-2.536,2.029-.742,0-1.429-.182-1.905-.461l.308-.939Z"/><path d="M163.723,299.307c.028-.463.056-1.148.056-1.752v-8.193h1.219v4.258h.028c.435-.756,1.219-1.246,2.312-1.246,1.681,0,2.872,1.4,2.857,3.459,0,2.424-1.527,3.629-3.04,3.629-.98,0-1.765-.379-2.27-1.275h-.042l-.056,1.121h-1.065ZM164.998,296.588c0,.154.028.309.056.449.238.854.953,1.443,1.849,1.443,1.289,0,2.059-1.051,2.059-2.605,0-1.359-.701-2.521-2.017-2.521-.841,0-1.625.574-1.877,1.512-.028.141-.07.309-.07.504v1.219Z"/><path d="M175.499,299.307l-.098-.855h-.042c-.378.533-1.107,1.01-2.073,1.01-1.373,0-2.073-.967-2.073-1.947,0-1.639,1.457-2.535,4.076-2.521v-.141c0-.561-.154-1.568-1.541-1.568-.63,0-1.289.195-1.765.504l-.28-.812c.561-.363,1.373-.602,2.227-.602,2.073,0,2.578,1.414,2.578,2.773v2.535c0,.588.028,1.162.112,1.625h-1.121ZM175.317,295.846c-1.345-.027-2.872.211-2.872,1.527,0,.799.532,1.176,1.163,1.176.882,0,1.442-.559,1.639-1.133.042-.127.07-.268.07-.393v-1.178Z"/><path d="M178.493,294.643c0-.799-.014-1.486-.056-2.115h1.079l.042,1.33h.056c.308-.91,1.051-1.484,1.877-1.484.14,0,.238.014.35.041v1.162c-.126-.027-.252-.041-.42-.041-.869,0-1.485.658-1.653,1.582-.028.168-.056.365-.056.574v3.615h-1.219v-4.664Z"/><line class="cls-3" x1="545.133" y1="184.41" x2="545.133" y2="134.41"/><circle class="cls-4" cx="545.133" cy="187.41" r="3.5"/><rect class="cls-2" x="535.98" y="118.519" width="18.306" height="12.665"/><path d="M541.933,125.811h-3.67v3.404h4.09v1.022h-5.309v-9.441h5.099v1.022h-3.88v2.984h3.67v1.008Z"/><path d="M547.644,130.237l-.098-.854h-.042c-.378.532-1.107,1.009-2.073,1.009-1.373,0-2.073-.967-2.073-1.947,0-1.639,1.457-2.535,4.076-2.521v-.14c0-.561-.154-1.569-1.541-1.569-.63,0-1.289.196-1.765.505l-.28-.812c.561-.364,1.373-.603,2.227-.603,2.073,0,2.578,1.415,2.578,2.773v2.535c0,.589.028,1.163.112,1.625h-1.121ZM547.461,126.777c-1.345-.028-2.871.21-2.871,1.527,0,.798.532,1.176,1.163,1.176.882,0,1.442-.56,1.639-1.134.042-.127.07-.267.07-.393v-1.177Z"/><path d="M550.638,125.573c0-.799-.014-1.485-.056-2.115h1.079l.042,1.33h.056c.308-.91,1.051-1.484,1.877-1.484.14,0,.238.014.351.042v1.162c-.126-.027-.252-.042-.42-.042-.869,0-1.485.659-1.653,1.583-.028.168-.056.364-.056.574v3.614h-1.219v-4.664Z"/><line class="cls-3" x1="567.746" y1="204.841" x2="567.746" y2="155.907"/><circle class="cls-4" cx="567.746" cy="203.434" r="3.5"/><rect class="cls-2" x="557.357" y="140.543" width="20.779" height="14.663"/><path d="M563.311,147.834h-3.67v3.404h4.09v1.022h-5.309v-9.441h5.099v1.022h-3.88v2.984h3.67v1.008Z"/><path d="M565.618,145.481l1.484,4.006c.154.448.322.98.435,1.387h.028c.126-.406.266-.925.434-1.415l1.345-3.978h1.303l-1.849,4.832c-.883,2.325-1.485,3.517-2.325,4.244-.603.532-1.205.743-1.513.799l-.309-1.036c.309-.099.715-.295,1.079-.603.336-.267.756-.742,1.036-1.373.056-.126.098-.224.098-.294s-.027-.168-.084-.322l-2.507-6.247h1.345Z"/><path d="M572.31,149.095c.028,1.667,1.093,2.354,2.325,2.354.883,0,1.415-.154,1.877-.351l.21.883c-.434.196-1.176.42-2.255.42-2.087,0-3.334-1.372-3.334-3.417s1.205-3.656,3.18-3.656c2.214,0,2.802,1.947,2.802,3.193,0,.252-.028.448-.042.574h-4.763ZM575.924,148.213c.014-.785-.322-2.004-1.709-2.004-1.247,0-1.793,1.149-1.891,2.004h3.6Z"/><rect class="cls-2" x="794.722" y="267.451" width="33.213" height="14.333"/><path d="M795.619,277.685c.546.336,1.345.616,2.185.616,1.247,0,1.975-.658,1.975-1.611,0-.883-.504-1.387-1.779-1.877-1.541-.546-2.494-1.345-2.494-2.676,0-1.471,1.219-2.562,3.054-2.562.967,0,1.667.224,2.087.462l-.336.994c-.308-.168-.938-.448-1.793-.448-1.289,0-1.779.771-1.779,1.415,0,.883.574,1.316,1.877,1.821,1.597.616,2.409,1.387,2.409,2.773,0,1.457-1.079,2.717-3.306,2.717-.911,0-1.905-.266-2.409-.602l.308-1.022Z"/><path d="M802.646,274.603c0-.868-.028-1.569-.056-2.213h1.107l.056,1.162h.028c.504-.826,1.303-1.316,2.409-1.316,1.639,0,2.872,1.387,2.872,3.445,0,2.438-1.485,3.643-3.082,3.643-.896,0-1.681-.393-2.087-1.064h-.028v3.684h-1.219v-7.34ZM803.865,276.409c0,.183.028.351.056.505.224.854.966,1.442,1.849,1.442,1.303,0,2.06-1.064,2.06-2.619,0-1.359-.715-2.521-2.017-2.521-.841,0-1.625.603-1.863,1.526-.042.154-.084.337-.084.505v1.162Z"/><path d="M811.985,270.484c.014.42-.294.756-.785.756-.434,0-.742-.336-.742-.756,0-.435.322-.771.77-.771.462,0,.757.336.757.771ZM810.612,279.169v-6.779h1.233v6.779h-1.233Z"/><path d="M813.888,274.225c0-.701-.014-1.275-.056-1.835h1.093l.07,1.12h.028c.336-.645,1.121-1.274,2.241-1.274.938,0,2.395.561,2.395,2.886v4.048h-1.232v-3.908c0-1.093-.406-2.003-1.569-2.003-.812,0-1.443.574-1.653,1.261-.056.154-.084.364-.084.574v4.076h-1.233v-4.944Z"/><path d="M822.345,276.003c.028,1.667,1.092,2.354,2.325,2.354.882,0,1.415-.154,1.877-.351l.21.883c-.434.196-1.176.42-2.255.42-2.087,0-3.334-1.372-3.334-3.417s1.205-3.656,3.18-3.656c2.213,0,2.802,1.947,2.802,3.193,0,.252-.028.448-.042.574h-4.763ZM825.958,275.121c.014-.785-.322-2.004-1.709-2.004-1.247,0-1.793,1.149-1.891,2.004h3.6Z"/><line class="cls-3" x1="775.154" y1="184.41" x2="775.154" y2="134.41"/><circle class="cls-4" cx="775.154" cy="187.41" r="3.5"/><rect class="cls-2" x="762.662" y="118.519" width="24.983" height="14.9"/><path d="M765.254,127.268l-.98,2.97h-1.261l3.208-9.441h1.471l3.222,9.441h-1.303l-1.008-2.97h-3.348ZM768.35,126.315l-.924-2.718c-.21-.616-.35-1.177-.49-1.723h-.028c-.14.561-.294,1.135-.476,1.709l-.924,2.731h2.843Z"/><path d="M772.211,125.573c0-.799-.014-1.485-.056-2.115h1.079l.042,1.33h.056c.308-.91,1.051-1.484,1.877-1.484.14,0,.238.014.351.042v1.162c-.126-.027-.252-.042-.42-.042-.869,0-1.485.659-1.653,1.583-.028.168-.056.364-.056.574v3.614h-1.219v-4.664Z"/><path d="M776.845,125.293c0-.701-.014-1.275-.056-1.835h1.079l.056,1.092h.042c.378-.644,1.009-1.246,2.129-1.246.924,0,1.625.561,1.919,1.358h.028c.21-.378.477-.672.756-.882.406-.309.854-.477,1.499-.477.896,0,2.227.588,2.227,2.941v3.992h-1.205v-3.838c0-1.303-.476-2.087-1.471-2.087-.7,0-1.247.518-1.457,1.12-.056.168-.098.393-.098.616v4.188h-1.205v-4.062c0-1.078-.476-1.862-1.415-1.862-.771,0-1.331.616-1.527,1.232-.07.182-.098.392-.098.603v4.09h-1.205v-4.944Z"/><line class="cls-3" x1="863.859" y1="213.152" x2="863.859" y2="267.826"/><circle class="cls-4" cx="863.859" cy="211.825" r="3.5"/><rect class="cls-2" x="852.904" y="267.875" width="21.91" height="16.119"/><path d="M853.969,270.151h1.219v8.419h4.034v1.022h-5.253v-9.441Z"/><path d="M861.025,276.427c.028,1.667,1.093,2.354,2.325,2.354.882,0,1.415-.154,1.877-.351l.21.883c-.434.196-1.176.42-2.255.42-2.087,0-3.334-1.372-3.334-3.417s1.205-3.656,3.18-3.656c2.213,0,2.802,1.947,2.802,3.193,0,.252-.028.448-.042.574h-4.763ZM864.639,275.545c.014-.785-.322-2.004-1.709-2.004-1.247,0-1.793,1.149-1.891,2.004h3.6Z"/><path d="M873.194,272.813c-.028.49-.056,1.036-.056,1.862v3.937c0,1.555-.308,2.507-.966,3.096-.659.616-1.611.812-2.465.812-.812,0-1.709-.196-2.255-.561l.308-.938c.448.28,1.148.532,1.989.532,1.261,0,2.185-.658,2.185-2.367v-.757h-.028c-.378.631-1.107,1.135-2.157,1.135-1.681,0-2.886-1.429-2.886-3.306,0-2.297,1.499-3.6,3.054-3.6,1.177,0,1.821.616,2.115,1.177h.028l.056-1.022h1.079ZM871.919,275.488c0-.21-.014-.392-.07-.56-.224-.715-.827-1.303-1.723-1.303-1.176,0-2.017.994-2.017,2.562,0,1.331.672,2.438,2.003,2.438.756,0,1.442-.476,1.709-1.261.07-.21.098-.448.098-.658v-1.219Z"/><line class="cls-3" x1="369.836" y1="211.848" x2="369.836" y2="282.539"/><circle class="cls-4" cx="369.836" cy="211.825" r="3.5"/><rect class="cls-2" x="355.365" y="287.589" width="28.942" height="14.826"/><path d="M356.429,289.991c.532-.111,1.373-.195,2.228-.195,1.218,0,2.003.21,2.591.686.49.364.784.925.784,1.667,0,.911-.602,1.709-1.597,2.073v.028c.896.224,1.947.967,1.947,2.367,0,.812-.322,1.429-.798,1.891-.658.603-1.723.883-3.264.883-.84,0-1.485-.056-1.891-.112v-9.287ZM357.648,293.857h1.106c1.289,0,2.045-.672,2.045-1.583,0-1.106-.841-1.54-2.073-1.54-.561,0-.882.042-1.079.084v3.039ZM357.648,298.382c.238.042.588.057,1.022.057,1.261,0,2.423-.463,2.423-1.835,0-1.289-1.106-1.821-2.437-1.821h-1.009v3.6Z"/><path d="M370.167,295.86c0,2.508-1.737,3.601-3.375,3.601-1.835,0-3.25-1.345-3.25-3.488,0-2.269,1.485-3.6,3.362-3.6,1.947,0,3.264,1.415,3.264,3.487ZM364.788,295.931c0,1.485.854,2.605,2.059,2.605,1.177,0,2.059-1.106,2.059-2.634,0-1.148-.574-2.604-2.031-2.604s-2.087,1.345-2.087,2.633Z"/><path d="M372.109,292.527l.896,3.445c.196.757.378,1.457.504,2.157h.042c.154-.687.378-1.415.603-2.143l1.106-3.46h1.037l1.05,3.39c.252.812.448,1.526.603,2.213h.042c.112-.687.294-1.4.518-2.199l.967-3.403h1.219l-2.186,6.779h-1.121l-1.036-3.235c-.238-.757-.435-1.429-.603-2.228h-.028c-.168.812-.378,1.513-.617,2.241l-1.092,3.222h-1.121l-2.045-6.779h1.261Z"/><path d="M381.923,289.361h1.233v9.945h-1.233v-9.945Z"/><rect class="cls-2" x="646.562" y="267.875" width="47.681" height="13.318"/><path d="M654.224,279.284c-.448.225-1.345.448-2.493.448-2.662,0-4.665-1.681-4.665-4.776,0-2.955,2.003-4.958,4.931-4.958,1.177,0,1.919.252,2.241.42l-.294.994c-.462-.224-1.121-.392-1.905-.392-2.213,0-3.684,1.414-3.684,3.894,0,2.312,1.331,3.796,3.628,3.796.743,0,1.499-.153,1.989-.392l.252.966Z"/><path d="M661.686,276.146c0,2.508-1.737,3.601-3.375,3.601-1.835,0-3.25-1.345-3.25-3.488,0-2.269,1.485-3.6,3.362-3.6,1.947,0,3.264,1.415,3.264,3.487ZM656.307,276.217c0,1.485.854,2.605,2.059,2.605,1.177,0,2.059-1.106,2.059-2.634,0-1.148-.574-2.604-2.031-2.604s-2.087,1.345-2.087,2.633Z"/><path d="M668.91,277.744c0,.7.014,1.316.056,1.849h-1.092l-.07-1.106h-.028c-.322.546-1.037,1.261-2.241,1.261-1.064,0-2.339-.589-2.339-2.97v-3.964h1.233v3.754c0,1.288.392,2.157,1.513,2.157.826,0,1.401-.574,1.625-1.121.07-.182.112-.406.112-.63v-4.16h1.233v4.931Z"/><path d="M670.95,274.648c0-.701-.014-1.275-.056-1.835h1.093l.07,1.12h.028c.336-.645,1.121-1.274,2.241-1.274.938,0,2.395.561,2.395,2.886v4.048h-1.232v-3.908c0-1.093-.406-2.003-1.569-2.003-.812,0-1.443.574-1.653,1.261-.056.154-.084.364-.084.574v4.076h-1.233v-4.944Z"/><path d="M680.149,270.866v1.947h1.765v.938h-1.765v3.655c0,.841.238,1.317.924,1.317.322,0,.561-.042.715-.084l.056.924c-.238.099-.616.168-1.092.168-.575,0-1.037-.182-1.331-.518-.35-.364-.476-.967-.476-1.766v-3.697h-1.051v-.938h1.051v-1.625l1.205-.322Z"/><path d="M683.9,276.427c.028,1.667,1.093,2.354,2.325,2.354.882,0,1.415-.154,1.877-.351l.21.883c-.434.196-1.176.42-2.255.42-2.087,0-3.334-1.372-3.334-3.417s1.205-3.656,3.18-3.656c2.213,0,2.802,1.947,2.802,3.193,0,.252-.028.448-.042.574h-4.763ZM687.514,275.545c.014-.785-.322-2.004-1.709-2.004-1.247,0-1.793,1.149-1.891,2.004h3.6Z"/><path d="M690.228,274.929c0-.799-.014-1.485-.056-2.115h1.079l.042,1.33h.056c.308-.91,1.051-1.484,1.877-1.484.14,0,.238.014.35.042v1.162c-.126-.027-.252-.042-.42-.042-.869,0-1.485.659-1.653,1.583-.028.168-.056.364-.056.574v3.614h-1.219v-4.664Z"/><rect class="cls-2" x="578.391" y="267.875" width="52.742" height="14.679"/><path d="M580.982,276.623l-.98,2.97h-1.261l3.208-9.441h1.471l3.222,9.441h-1.303l-1.009-2.97h-3.348ZM584.078,275.671l-.924-2.718c-.21-.616-.35-1.177-.49-1.723h-.028c-.14.561-.294,1.135-.476,1.709l-.924,2.731h2.843Z"/><path d="M587.939,275.026c0-.868-.028-1.569-.056-2.213h1.107l.056,1.162h.028c.504-.826,1.303-1.316,2.409-1.316,1.639,0,2.872,1.387,2.872,3.445,0,2.438-1.485,3.643-3.082,3.643-.896,0-1.681-.393-2.087-1.064h-.028v3.684h-1.219v-7.34ZM589.158,276.833c0,.183.028.351.056.505.224.854.966,1.442,1.849,1.442,1.302,0,2.059-1.064,2.059-2.619,0-1.359-.714-2.521-2.017-2.521-.841,0-1.625.603-1.863,1.526-.042.154-.084.337-.084.505v1.162Z"/><path d="M596.592,276.427c.028,1.667,1.093,2.354,2.325,2.354.882,0,1.415-.154,1.877-.351l.21.883c-.434.196-1.176.42-2.255.42-2.087,0-3.334-1.372-3.334-3.417s1.205-3.656,3.18-3.656c2.213,0,2.802,1.947,2.802,3.193,0,.252-.028.448-.042.574h-4.763ZM600.206,275.545c.014-.785-.322-2.004-1.709-2.004-1.247,0-1.793,1.149-1.891,2.004h3.6Z"/><path d="M602.919,274.929c0-.799-.014-1.485-.056-2.115h1.079l.042,1.33h.056c.308-.91,1.051-1.484,1.877-1.484.14,0,.238.014.35.042v1.162c-.126-.027-.252-.042-.42-.042-.869,0-1.485.659-1.653,1.583-.028.168-.056.364-.056.574v3.614h-1.219v-4.664Z"/><path d="M609.318,270.866v1.947h1.765v.938h-1.765v3.655c0,.841.238,1.317.924,1.317.322,0,.561-.042.715-.084l.056.924c-.238.099-.616.168-1.092.168-.575,0-1.037-.182-1.331-.518-.35-.364-.476-.967-.476-1.766v-3.697h-1.051v-.938h1.051v-1.625l1.205-.322Z"/><path d="M618.14,277.744c0,.7.014,1.316.056,1.849h-1.092l-.07-1.106h-.028c-.322.546-1.037,1.261-2.241,1.261-1.064,0-2.339-.589-2.339-2.97v-3.964h1.233v3.754c0,1.288.392,2.157,1.513,2.157.826,0,1.401-.574,1.625-1.121.07-.182.112-.406.112-.63v-4.16h1.233v4.931Z"/><path d="M620.181,274.929c0-.799-.014-1.485-.056-2.115h1.079l.042,1.33h.056c.308-.91,1.051-1.484,1.877-1.484.14,0,.238.014.35.042v1.162c-.126-.027-.252-.042-.42-.042-.869,0-1.485.659-1.653,1.583-.028.168-.056.364-.056.574v3.614h-1.219v-4.664Z"/><path d="M625.305,276.427c.028,1.667,1.092,2.354,2.325,2.354.882,0,1.415-.154,1.877-.351l.21.883c-.434.196-1.176.42-2.255.42-2.087,0-3.334-1.372-3.334-3.417s1.205-3.656,3.18-3.656c2.213,0,2.802,1.947,2.802,3.193,0,.252-.028.448-.042.574h-4.763ZM628.919,275.545c.014-.785-.322-2.004-1.709-2.004-1.247,0-1.793,1.149-1.891,2.004h3.6Z"/><line class="cls-3" x1="883.921" y1="224.5" x2="883.921" y2="155.907"/><circle class="cls-4" cx="883.921" cy="226.873" r="3.5"/><rect class="cls-2" x="864.418" y="140.544" width="39.006" height="17.358"/><path d="M872.08,151.953c-.448.225-1.345.448-2.493.448-2.662,0-4.665-1.681-4.665-4.776,0-2.955,2.003-4.958,4.931-4.958,1.176,0,1.919.252,2.241.42l-.294.994c-.462-.224-1.121-.392-1.905-.392-2.213,0-3.684,1.414-3.684,3.894,0,2.312,1.331,3.796,3.628,3.796.742,0,1.499-.153,1.989-.392l.252.966Z"/><path d="M873.518,147.598c0-.799-.014-1.485-.056-2.115h1.079l.042,1.33h.056c.308-.91,1.051-1.484,1.877-1.484.14,0,.238.014.351.042v1.162c-.126-.027-.252-.042-.42-.042-.869,0-1.485.659-1.653,1.583-.028.168-.056.364-.056.574v3.614h-1.219v-4.664Z"/><path d="M884.092,148.815c0,2.508-1.737,3.601-3.375,3.601-1.835,0-3.25-1.345-3.25-3.488,0-2.27,1.485-3.6,3.362-3.6,1.947,0,3.264,1.415,3.264,3.487ZM878.713,148.886c0,1.485.854,2.605,2.059,2.605,1.177,0,2.059-1.106,2.059-2.634,0-1.148-.574-2.604-2.031-2.604s-2.087,1.345-2.087,2.633Z"/><path d="M887.127,143.535v1.947h1.765v.938h-1.765v3.655c0,.841.238,1.317.924,1.317.322,0,.561-.042.715-.084l.056.924c-.238.099-.616.168-1.092.168-.575,0-1.037-.182-1.331-.518-.35-.364-.476-.967-.476-1.766v-3.697h-1.051v-.938h1.051v-1.625l1.205-.322Z"/><path d="M895.025,152.01c-.322.168-1.037.392-1.947.392-2.045,0-3.376-1.387-3.376-3.459,0-2.088,1.429-3.601,3.642-3.601.729,0,1.373.183,1.709.351l-.28.952c-.294-.168-.756-.322-1.429-.322-1.555,0-2.396,1.148-2.396,2.563,0,1.569,1.009,2.535,2.354,2.535.7,0,1.163-.182,1.513-.336l.21.925Z"/><path d="M896.464,142.316h1.233v4.23h.028c.196-.351.504-.658.882-.869.364-.21.799-.35,1.261-.35.911,0,2.367.561,2.367,2.899v4.034h-1.232v-3.895c0-1.092-.406-2.017-1.569-2.017-.798,0-1.429.561-1.653,1.232-.07.168-.084.351-.084.589v4.09h-1.233v-9.945Z"/><line class="cls-3" x1="877.964" y1="247.167" x2="877.964" y2="318.703"/><circle class="cls-4" cx="877.964" cy="244.925" r="3.5"/><rect class="cls-2" x="858.984" y="318.985" width="37.958" height="17.986"/><path d="M862.123,330.702l-3.082-9.441h1.316l1.471,4.65c.406,1.275.756,2.424,1.008,3.53h.028c.267-1.093.659-2.283,1.079-3.516l1.597-4.665h1.303l-3.376,9.441h-1.345Z"/><path d="M868.044,327.536c.028,1.667,1.092,2.354,2.325,2.354.882,0,1.415-.154,1.877-.351l.21.883c-.434.196-1.176.42-2.255.42-2.087,0-3.334-1.372-3.334-3.417s1.205-3.656,3.18-3.656c2.213,0,2.802,1.947,2.802,3.193,0,.252-.028.448-.042.574h-4.763ZM871.658,326.654c.014-.785-.322-2.004-1.709-2.004-1.247,0-1.793,1.149-1.891,2.004h3.6Z"/><path d="M874.371,326.038c0-.799-.014-1.485-.056-2.115h1.079l.042,1.33h.056c.308-.91,1.051-1.484,1.877-1.484.14,0,.238.014.351.042v1.162c-.126-.027-.252-.042-.42-.042-.869,0-1.485.659-1.653,1.583-.028.168-.056.364-.056.574v3.614h-1.219v-4.664Z"/><path d="M880.77,321.976v1.947h1.765v.938h-1.765v3.655c0,.841.238,1.317.924,1.317.322,0,.561-.042.714-.084l.056.924c-.238.099-.616.168-1.092.168-.575,0-1.037-.182-1.331-.518-.35-.364-.476-.967-.476-1.766v-3.697h-1.051v-.938h1.051v-1.625l1.205-.322Z"/><path d="M884.521,327.536c.028,1.667,1.092,2.354,2.325,2.354.882,0,1.415-.154,1.877-.351l.21.883c-.434.196-1.176.42-2.255.42-2.087,0-3.334-1.372-3.334-3.417s1.205-3.656,3.18-3.656c2.213,0,2.802,1.947,2.802,3.193,0,.252-.028.448-.042.574h-4.763ZM888.135,326.654c.014-.785-.322-2.004-1.709-2.004-1.247,0-1.793,1.149-1.891,2.004h3.6Z"/><path d="M891.381,323.923l.967,1.456c.252.379.462.729.686,1.107h.042c.224-.406.448-.757.672-1.121l.952-1.442h1.331l-2.312,3.277,2.381,3.502h-1.401l-.994-1.526c-.267-.393-.491-.771-.729-1.177h-.028c-.224.406-.462.771-.714,1.177l-.98,1.526h-1.359l2.41-3.46-2.297-3.319h1.373Z"/><line class="cls-3" x1="811.328" y1="217.826" x2="811.328" y2="267.826"/><circle class="cls-4" cx="811.328" cy="215.826" r="3.5"/><rect class="cls-2" x="627.33" y="287.588" width="34.475" height="16.297"/><path d="M628.227,297.821c.546.336,1.345.616,2.185.616,1.247,0,1.975-.658,1.975-1.611,0-.882-.504-1.387-1.779-1.877-1.541-.546-2.493-1.345-2.493-2.676,0-1.471,1.218-2.562,3.053-2.562.967,0,1.667.224,2.087.462l-.336.994c-.308-.168-.938-.448-1.793-.448-1.289,0-1.779.771-1.779,1.415,0,.883.574,1.316,1.877,1.821,1.597.616,2.409,1.387,2.409,2.773,0,1.456-1.079,2.717-3.306,2.717-.911,0-1.905-.266-2.409-.602l.308-1.022Z"/><path d="M636.697,290.579v1.947h1.765v.938h-1.765v3.655c0,.841.238,1.317.924,1.317.322,0,.561-.042.715-.084l.056.924c-.238.099-.616.168-1.092.168-.575,0-1.037-.182-1.331-.518-.35-.364-.476-.967-.476-1.766v-3.697h-1.051v-.938h1.051v-1.625l1.205-.322Z"/><path d="M639.846,294.642c0-.799-.014-1.485-.056-2.115h1.079l.042,1.33h.056c.308-.91,1.051-1.484,1.877-1.484.14,0,.238.014.35.042v1.162c-.126-.027-.252-.042-.42-.042-.869,0-1.485.659-1.653,1.583-.028.168-.056.364-.056.574v3.614h-1.219v-4.664Z"/><path d="M644.971,296.14c.028,1.667,1.093,2.354,2.325,2.354.882,0,1.415-.154,1.877-.351l.21.883c-.434.196-1.176.42-2.255.42-2.087,0-3.334-1.372-3.334-3.417s1.205-3.656,3.18-3.656c2.213,0,2.802,1.947,2.802,3.193,0,.252-.028.448-.042.574h-4.763ZM648.585,295.258c.014-.785-.322-2.003-1.709-2.003-1.247,0-1.793,1.148-1.891,2.003h3.6Z"/><path d="M651.13,298.045c.364.238,1.008.49,1.625.49.896,0,1.316-.448,1.316-1.009,0-.588-.35-.91-1.261-1.246-1.218-.435-1.793-1.106-1.793-1.919,0-1.093.883-1.989,2.339-1.989.687,0,1.289.196,1.667.42l-.308.896c-.266-.168-.756-.392-1.387-.392-.729,0-1.135.42-1.135.924,0,.561.406.812,1.289,1.148,1.177.448,1.779,1.037,1.779,2.046,0,1.19-.925,2.03-2.536,2.03-.742,0-1.429-.182-1.905-.462l.308-.938Z"/><path d="M656.674,298.045c.364.238,1.008.49,1.625.49.896,0,1.316-.448,1.316-1.009,0-.588-.35-.91-1.261-1.246-1.218-.435-1.793-1.106-1.793-1.919,0-1.093.883-1.989,2.339-1.989.687,0,1.289.196,1.667.42l-.308.896c-.266-.168-.756-.392-1.387-.392-.729,0-1.135.42-1.135.924,0,.561.406.812,1.289,1.148,1.177.448,1.779,1.037,1.779,2.046,0,1.19-.925,2.03-2.536,2.03-.742,0-1.429-.182-1.905-.462l.308-.938Z"/><line class="cls-3" x1="644.568" y1="237.088" x2="644.568" y2="287.588"/><circle class="cls-4" cx="644.568" cy="235.826" r="3.5"/><rect class="cls-2" x="168.193" y="267.451" width="27.998" height="16.579"/><path d="M169.09,277.685c.546.336,1.345.616,2.185.616,1.247,0,1.975-.658,1.975-1.611,0-.882-.504-1.387-1.779-1.877-1.541-.546-2.494-1.345-2.494-2.676,0-1.471,1.219-2.562,3.054-2.562.967,0,1.667.224,2.087.462l-.336.994c-.308-.168-.938-.448-1.793-.448-1.289,0-1.779.771-1.779,1.415,0,.883.574,1.316,1.877,1.821,1.597.616,2.409,1.387,2.409,2.773,0,1.456-1.079,2.717-3.306,2.717-.911,0-1.905-.266-2.409-.602l.308-1.022Z"/><path d="M176.888,276.003c.028,1.667,1.092,2.354,2.325,2.354.882,0,1.415-.154,1.877-.351l.21.883c-.434.196-1.176.42-2.255.42-2.087,0-3.334-1.372-3.334-3.417s1.205-3.656,3.18-3.656c2.213,0,2.802,1.947,2.802,3.193,0,.252-.028.448-.042.574h-4.763ZM180.502,275.121c.014-.785-.322-2.003-1.709-2.003-1.247,0-1.793,1.148-1.891,2.003h3.6Z"/><path d="M183.215,274.505c0-.799-.014-1.485-.056-2.115h1.079l.042,1.33h.056c.308-.91,1.051-1.484,1.877-1.484.14,0,.238.014.351.042v1.162c-.126-.027-.252-.042-.42-.042-.869,0-1.485.659-1.653,1.583-.028.168-.056.364-.056.574v3.614h-1.219v-4.664Z"/><path d="M189.223,270.484c.014.42-.294.756-.785.756-.434,0-.742-.336-.742-.756,0-.435.322-.771.77-.771.462,0,.757.336.757.771ZM187.85,279.169v-6.779h1.233v6.779h-1.233Z"/><path d="M191.251,279.169v-5.841h-.952v-.938h.952v-.322c0-.953.21-1.821.785-2.367.462-.448,1.079-.631,1.653-.631.434,0,.812.099,1.051.196l-.168.952c-.182-.084-.434-.153-.784-.153-1.051,0-1.317.924-1.317,1.961v.364h1.639v.938h-1.639v5.841h-1.219Z"/><line class="cls-3" x1="182.192" y1="239" x2="182.192" y2="267.826"/><circle class="cls-4" cx="182.192" cy="235.826" r="3.5"/><line class="cls-3" x1="897.471" y1="214.151" x2="897.471" y2="267.826"/><circle class="cls-4" cx="897.471" cy="211.825" r="3.5"/><rect class="cls-2" x="880.48" y="267.875" width="45.982" height="16.04"/><path d="M882.764,270.151v3.95h4.566v-3.95h1.233v9.441h-1.233v-4.427h-4.566v4.427h-1.219v-9.441h1.219Z"/><path d="M894.385,279.593l-.098-.854h-.042c-.378.532-1.107,1.009-2.073,1.009-1.373,0-2.073-.967-2.073-1.947,0-1.639,1.457-2.535,4.076-2.521v-.14c0-.561-.154-1.569-1.541-1.569-.63,0-1.289.196-1.765.505l-.28-.812c.561-.364,1.373-.603,2.227-.603,2.073,0,2.578,1.415,2.578,2.773v2.535c0,.589.028,1.163.112,1.625h-1.121ZM894.203,276.133c-1.345-.028-2.872.21-2.872,1.527,0,.798.532,1.176,1.163,1.176.882,0,1.442-.56,1.639-1.134.042-.126.07-.267.07-.393v-1.177Z"/><path d="M898.752,270.908c.014.42-.294.756-.785.756-.434,0-.742-.336-.742-.756,0-.435.322-.771.77-.771.462,0,.757.336.757.771ZM897.379,279.593v-6.779h1.233v6.779h-1.233Z"/><path d="M900.655,274.929c0-.799-.014-1.485-.056-2.115h1.079l.042,1.33h.056c.308-.91,1.051-1.484,1.877-1.484.14,0,.238.014.351.042v1.162c-.126-.027-.252-.042-.42-.042-.869,0-1.485.659-1.653,1.583-.028.168-.056.364-.056.574v3.614h-1.219v-4.664Z"/><path d="M905.289,269.647h1.233v9.945h-1.233v-9.945Z"/><path d="M909.966,270.908c.014.42-.294.756-.785.756-.434,0-.742-.336-.742-.756,0-.435.322-.771.77-.771.462,0,.757.336.757.771ZM908.593,279.593v-6.779h1.233v6.779h-1.233Z"/><path d="M911.869,274.648c0-.701-.014-1.275-.056-1.835h1.093l.07,1.12h.028c.336-.645,1.121-1.274,2.241-1.274.938,0,2.395.561,2.395,2.886v4.048h-1.232v-3.908c0-1.093-.406-2.003-1.569-2.003-.812,0-1.443.574-1.653,1.261-.056.154-.084.364-.084.574v4.076h-1.233v-4.944Z"/><path d="M920.325,276.427c.028,1.667,1.093,2.354,2.325,2.354.882,0,1.415-.154,1.877-.351l.21.883c-.434.196-1.176.42-2.255.42-2.087,0-3.334-1.372-3.334-3.417s1.205-3.656,3.18-3.656c2.213,0,2.802,1.947,2.802,3.193,0,.252-.028.448-.042.574h-4.763ZM923.939,275.545c.014-.785-.322-2.004-1.709-2.004-1.247,0-1.793,1.149-1.891,2.004h3.6Z"/><line class="cls-3" x1="202.414" y1="193.5" x2="202.414" y2="134.41"/><circle class="cls-4" cx="202.414" cy="195.41" r="3.5"/><rect class="cls-2" x="165.455" y="118.519" width="73.919" height="16.595"/><path d="M166.52,120.922c.532-.111,1.373-.195,2.228-.195,1.218,0,2.003.21,2.591.686.49.364.784.925.784,1.667,0,.911-.602,1.709-1.597,2.073v.028c.896.224,1.947.967,1.947,2.367,0,.812-.322,1.429-.798,1.891-.658.603-1.723.883-3.264.883-.84,0-1.485-.056-1.891-.112v-9.287ZM167.738,124.788h1.106c1.289,0,2.045-.672,2.045-1.583,0-1.106-.841-1.54-2.073-1.54-.561,0-.882.042-1.079.084v3.039ZM167.738,129.312c.238.042.588.057,1.022.057,1.261,0,2.423-.463,2.423-1.835,0-1.289-1.106-1.821-2.437-1.821h-1.009v3.6Z"/><path d="M177.819,130.237l-.098-.854h-.042c-.378.532-1.107,1.009-2.073,1.009-1.373,0-2.073-.967-2.073-1.947,0-1.639,1.457-2.535,4.076-2.521v-.14c0-.561-.154-1.569-1.541-1.569-.63,0-1.289.196-1.765.505l-.28-.812c.561-.364,1.373-.603,2.227-.603,2.073,0,2.578,1.415,2.578,2.773v2.535c0,.589.028,1.163.112,1.625h-1.121ZM177.637,126.777c-1.345-.028-2.871.21-2.871,1.527,0,.798.532,1.176,1.163,1.176.882,0,1.442-.56,1.639-1.134.042-.127.07-.267.07-.393v-1.177Z"/><path d="M180.813,120.292h1.233v9.945h-1.233v-9.945Z"/><path d="M184.117,120.292h1.233v9.945h-1.233v-9.945Z"/><path d="M191.65,121.833h-2.872v-1.037h6.99v1.037h-2.885v8.404h-1.233v-8.404Z"/><path d="M196.465,127.071c.028,1.667,1.093,2.354,2.325,2.354.882,0,1.415-.154,1.877-.351l.21.883c-.434.196-1.176.42-2.255.42-2.087,0-3.334-1.372-3.334-3.417s1.205-3.656,3.18-3.656c2.213,0,2.802,1.947,2.802,3.193,0,.252-.028.448-.042.574h-4.763ZM200.079,126.189c.014-.785-.322-2.003-1.709-2.003-1.247,0-1.793,1.148-1.891,2.003h3.6Z"/><path d="M202.792,125.573c0-.799-.014-1.485-.056-2.115h1.079l.042,1.33h.056c.308-.91,1.051-1.484,1.877-1.484.14,0,.238.014.35.042v1.162c-.126-.027-.252-.042-.42-.042-.869,0-1.485.659-1.653,1.583-.028.168-.056.364-.056.574v3.614h-1.219v-4.664Z"/><path d="M207.427,125.293c0-.701-.014-1.275-.056-1.835h1.079l.056,1.092h.042c.378-.644,1.009-1.246,2.129-1.246.924,0,1.625.561,1.919,1.358h.028c.21-.378.477-.672.756-.882.406-.309.854-.477,1.499-.477.896,0,2.227.588,2.227,2.941v3.992h-1.205v-3.838c0-1.303-.476-2.087-1.471-2.087-.7,0-1.247.518-1.457,1.12-.056.168-.098.393-.098.616v4.188h-1.205v-4.062c0-1.078-.477-1.862-1.415-1.862-.771,0-1.331.616-1.527,1.232-.07.182-.098.392-.098.603v4.09h-1.205v-4.944Z"/><path d="M220.476,121.553c.014.42-.294.756-.785.756-.434,0-.742-.336-.742-.756,0-.435.322-.771.77-.771.462,0,.757.336.757.771ZM219.103,130.237v-6.779h1.233v6.779h-1.233Z"/><path d="M222.378,125.293c0-.701-.014-1.275-.056-1.835h1.093l.07,1.12h.028c.336-.645,1.121-1.274,2.241-1.274.938,0,2.395.561,2.395,2.886v4.048h-1.232v-3.908c0-1.093-.406-2.003-1.569-2.003-.812,0-1.443.574-1.653,1.261-.056.154-.084.364-.084.574v4.076h-1.233v-4.944Z"/><path d="M233.902,130.237l-.098-.854h-.042c-.378.532-1.107,1.009-2.073,1.009-1.373,0-2.073-.967-2.073-1.947,0-1.639,1.457-2.535,4.076-2.521v-.14c0-.561-.154-1.569-1.541-1.569-.63,0-1.289.196-1.765.505l-.28-.812c.561-.364,1.373-.603,2.227-.603,2.073,0,2.578,1.415,2.578,2.773v2.535c0,.589.028,1.163.112,1.625h-1.121ZM233.72,126.777c-1.345-.028-2.871.21-2.871,1.527,0,.798.532,1.176,1.163,1.176.882,0,1.442-.56,1.639-1.134.042-.127.07-.267.07-.393v-1.177Z"/><path d="M236.896,120.292h1.233v9.945h-1.233v-9.945Z"/><polyline class="cls-3" points="457.972 282.539 457.972 239.5 486.797 239.5"/><circle class="cls-4" cx="489" cy="239.5" r="3.5"/><polyline class="cls-3" points="604 267.826 604 224.826 588 224.826"/><circle class="cls-4" cx="588" cy="224.826" r="3.5"/><line class="cls-3" x1="668.402" y1="217.326" x2="668.402" y2="267.826"/><circle class="cls-4" cx="668.402" cy="217.146" r="3.5"/></svg>