<?xml version="1.0" encoding="UTF-8"?>
<svg id="_图层_2" data-name="图层_2" xmlns="http://www.w3.org/2000/svg" version="1.1" viewBox="0 0 1074 450">
  <!-- Generator: Adobe Illustrator 29.8.0, SVG Export Plug-In . SVG Version: 2.1.1 Build 160)  -->
  <defs>
    <style>
      .st0 {
        opacity: .1;
        stroke: #000;
      }

      .st0, .st1 {
        fill: none;
      }

      .st0, .st1, .st2 {
        stroke-miterlimit: 10;
      }

      .st1, .st2 {
        stroke: #666;
        stroke-width: .5px;
      }

      .st2 {
        fill: #fff;
      }

      .st3 {
        font-family: MyriadPro-Regular, 'Myriad Pro';
        font-size: 14px;
      }
    </style>
  </defs>
  <g>
    <path d="M126,150.5c0,32.5,0,65,0,97.5,0-.6,4.6-3.5,5.2-4s5-3.2,5-4.2v-1.1c0,.6-4.6,3.5-5.2,4s-5,3.2-5,4.2v1.1c3.4-2.8,6.8-5.5,10.2-8.3,0-32.5,0-65,0-97.5,0,.6-4.6,3.5-5.2,4s-5,3.2-5,4.2h0Z"/>
    <path d="M177.5,150.5c0,32.5,0,65,0,97.5,0-.6,4.6-3.5,5.2-4s5-3.2,5-4.2v-1.1c0,.6-4.6,3.5-5.2,4-.8.6-5,3.2-5,4.2v1.1c3.4-2.8,6.8-5.5,10.2-8.3,0-32.5,0-65,0-97.5,0,.6-4.6,3.5-5.2,4s-5,3.2-5,4.2h0Z"/>
    <path d="M125.9,194c17.4,0,34.8,0,52.2,0,1.3,0,4.2-3.3,5.2-4.1s3.9-4.3,5.1-4.3c-17.4,0-34.8,0-52.2,0s-4.2,3.3-5.2,4.1-3.9,4.3-5.1,4.3h0Z"/>
  </g>
  <path d="M229.7,205.4c0,14.2,0,28.4,0,42.6,0-.6,4.2-3.2,4.7-3.7s4.6-2.9,4.6-3.9c0-14.2,0-28.4,0-42.6,0,.6-4.2,3.2-4.7,3.7s-4.6,2.9-4.6,3.9h0Z"/>
  <g>
    <path d="M206.5,195c-.2-1.1-.2-2.1.2-3.1,1.7-3.1.1-2-4.9,3.3,1.3,0,3.4-1.1,4.8-1.2,3.7-.5,7.6-.5,11.3.3,6,1.3,10.1,5.5,11.8,11.2-.4-1.4,10-6,9.5-7.7-3.1-10.8-14.7-13.5-24.8-11.3-4.1.9-7.1,3.5-10.3,6.1-3.5,2.8-7.4,5.1-7.2,10,0-.5,4.3-3.3,4.8-3.8s4.7-3,4.7-3.9h0Z"/>
    <path d="M238.4,210.2c-9.6-3.3-19.1-1.4-27,4.7-6.4,5-13.5,10.4-14.8,19-.7,4.7,1.7,9.5,5.8,12,4.5,2.6,10.2,1.9,14.9.5,6.8-2,13.8-7.4,18.3-12.8-2,2.4-5.6,3.7-7.6,6.2,2.4-1.6,2.5-1.8.5-.8l-1.4.6c-1.4.5-2.9,1-4.4,1.3-3.2.7-6.6,1-9.8.2-5.4-1.5-9.4-6.8-8.9-12.4s1.3-5.4,2.6-7.7c.7-1.2,1.6-2.7,2.6-3.6-1.6,1.5,1.7-.6,2.2-.8,6.2-2.4,13-2.2,19.2,0s6.1-6.7,7.6-6.2h0Z"/>
  </g>
  <g>
    <path d="M247.6,193.1c0,18.3,0,36.6,0,54.9,0-.6,4.6-3.5,5.2-4s5-3.2,5-4.2c0-18.3,0-36.6,0-54.9,0,.6-4.6,3.5-5.2,4s-5,3.2-5,4.2h0Z"/>
    <path d="M263,192.1c-.9,1.1-8.1,5-3.1,3.2s1.8-.6,2.7-.8c2.3-.5,4.6-.6,6.9-.2,5.4.8,7.6,4.2,8.9,9.2-.4-1.6,10.9-6.4,10.3-8.4-1.2-4.4-3-7.8-7.6-9s-8.5-.5-12.2,1.2c-5.8,2.7-12.2,8.1-16.3,13,2.7-3.3,7.5-5,10.3-8.4h0Z"/>
    <path d="M278.6,203.2c0,14.9,0,29.9,0,44.8,0-.6,4.5-3.5,5.1-4s5-3.1,5-4.2c0-14.9,0-29.9,0-44.8,0,.6-4.5,3.5-5.1,4s-5,3.1-5,4.2h0Z"/>
    <path d="M292.3,192.2c-.9,1.1-8.1,5-3.1,3.2.9-.3,1.8-.6,2.7-.8,2.3-.5,4.6-.6,6.9-.2,5.4.8,7.6,4.2,8.9,9.2-.4-1.6,10.9-6.4,10.3-8.4-1.2-4.4-3-7.8-7.6-9-4-1-8.5-.5-12.2,1.2-5.8,2.7-12.2,8.1-16.3,13,2.7-3.3,7.5-5,10.3-8.4h0Z"/>
    <path d="M307.7,203.2c0,14.9,0,29.9,0,44.8,0-.6,4.5-3.5,5.1-4s5-3.1,5-4.2c0-14.9,0-29.9,0-44.8,0,.6-4.5,3.5-5.1,4s-5,3.1-5,4.2h0Z"/>
  </g>
  <g>
    <path d="M326.7,151c0,32.3,0,64.7,0,97,0-.6,4.6-3.5,5.2-4s5-3.2,5-4.2c0-32.3,0-64.7,0-97,0,.6-4.6,3.5-5.2,4s-5,3.2-5,4.2h0Z"/>
    <path d="M344.7,191.5c.2-1.4.4-2.1,1.3-3.2l-2.5,2.1.9-.7c-2.6,2-5.2,4.1-7.8,6.1,7.3-4.1,18.2-2.4,23.2,4.5,4.8,6.4,5.4,15.9,4.8,23.6-.3,3.9-1.6,7-2.7,10.6-1.7,2.4-.8,1.9,2.8-1.5-.9.4-1.8.8-2.7,1.2-2,.8-4.1,1.3-6.2,1.5-8.9.8-14.7-4.4-19-11.7.2.4-10.7,7.5-10.2,8.3,2.8,4.8,6.6,9.6,12.2,11.1,5.9,1.6,12.1.2,17.3-2.9,4.6-2.7,9-6.5,12.8-10.2,4-3.7,5.4-8.6,5.9-14,1.2-12-1.5-28.8-16-30.9s-10.1.5-14,3.6c-3.4,2.6-9.7,6-10.3,10.7.1-.8,4.4-3.4,5.2-4s4.8-3,5-4.2h0Z"/>
  </g>
  <g>
    <path d="M381.9,191.4c0,12.8,0,25.6,0,38.4,0-.6,4.4-3.4,5-3.9s4.9-3.1,4.9-4.1c0-12.8,0-25.6,0-38.4,0,.6-4.4,3.4-5,3.9s-4.9,3.1-4.9,4.1h0Z"/>
    <path d="M419.8,192.3v55.6c0-.6,4.6-3.5,5.2-4s5-3.2,5-4.2v-55.6c0,.6-4.6,3.5-5.2,4s-5,3.2-5,4.2h0Z"/>
    <path d="M381.9,229.4c.4,6.3,3.8,13.4,10.2,15.6,6.3,2.2,13.8.2,19.7-2.4,3.8-1.6,6.2-6.4,9.9-8-5.9,2.5-13.4,4.5-19.7,2.4-6.4-2.2-9.8-9.3-10.2-15.6,0,.5-4.5,3.5-5,3.9s-4.9,3.2-4.9,4.1h0Z"/>
  </g>
  <g>
    <path d="M441.1,193.1v54.9c0-.6,4.6-3.5,5.2-4s5-3.2,5-4.2v-54.9c0,.6-4.6,3.5-5.2,4s-5,3.2-5,4.2h0Z"/>
    <path d="M451.1,201.2c1.1-3.5,2.9-5.9,5.3-8.6,2.7-2.5,1.4-1.5-3.9,3.1.8-.4,1.6-.9,2.4-1.3,1.8-.8,3.7-1,5.6-1.2,7.1-.6,11.7,3.3,14.5,9.6-.4-.8,10.6-7,10-8.1-2.1-4.7-5.9-9.4-11.4-9.7s-9.3,1.1-13.2,4.1c-7.1,5.2-16.6,11.5-19.3,20.3.3-1.1,4.2-3.2,5.1-4s4.5-2.7,4.9-4.2h0Z"/>
  </g>
  <g>
    <path d="M495.2,196c2.1-1.6,6.9-1.9,9.4-2.1,4.2-.4,8.5.3,11.9,3.1s5.8,7.7,6,12.3-.1,4.7-1,6.9-1.1,1.9-1.5,2.9c-2.3,4.8,9.7-5.8,4.5-3.4-4,1.8-6.6,6.7-10.5,8.5,5.1-2.4,10.2-6.7,14.2-10.7,4.5-4.5,6.1-11.3,4-17.3s-8.4-11.1-15.4-10.8c-4.1.2-9.3.7-12.6,3.2-2.4,1.9-4.8,3.8-7.2,5.8-.5.4-3.7,3.1-1.8,1.7h0Z"/>
    <path d="M523.6,216.6c-2.1,1.6-6.9,1.9-9.4,2.1-4.2.4-8.5-.3-11.9-3.1-3.7-3-5.8-7.7-6-12.3s.1-4.7,1-6.9,1.1-1.9,1.5-2.9c2.3-4.8-9.7,5.8-4.5,3.4,4-1.8,6.6-6.7,10.5-8.5-5.1,2.4-10.2,6.7-14.2,10.7-4.5,4.5-6.1,11.3-4,17.3,2.3,6.7,8.4,11.1,15.4,10.8,4.1-.2,9.3-.7,12.6-3.2,2.4-1.9,4.8-3.8,7.2-5.8.5-.4,3.7-3.1,1.8-1.7h0Z"/>
    <path d="M535.9,188.3c.4-1.1.8-1.9,1.8-2.8-3.3,2.7-6.6,5.3-9.9,8,4.6-3.2,12.6-3.7,16.5.9.2.2,10.3-8.2,10.2-8.3-3.9-4.6-11.6-4.1-16.3-1.2-2.9,1.8-5.6,4.3-8.2,6.5-1.9,1.6-3.4,2.8-4.4,5.1.5-1.2,4.1-3.2,5.2-4s4.4-2.7,5-4.2h0Z"/>
    <path d="M504.2,226.7c11.5-9.5.1-1.6-2.9.6-2.8,2.1-5.5,4.3-8.1,6.5-2.9,2.5-10.4,9.6-4.3,12.2,3.9,1.6,9,1.1,13.1,1.3,4.1.2,8.2.5,12.2,1.7,6.8,1.9,14.7,6.4,15.3,14.2,0-.5,4.7-3.6,5.2-4.1s5.1-3.3,5.1-4.3c-.5-6.6-6.4-10.8-12.1-13.1-7.5-3-15.5-2.5-23.4-3.2-2.4-.2-7-.2-7.5-3.2s.7-2.8,1.2-3.7c.3-.7.7-1.4,1.2-2-6.5,4.5-8.1,5.8-4.8,3.8,5.6-2.9,10.3-6.8,15.2-10.8.2-.2,3.8-3,1.7-1.6-2.5,1.6-4.8,3.8-7.1,5.7h0Z"/>
    <path d="M527.1,257c3.5,5.1,2.8,10.8-.2,16s-3.1,3.9-3.1,4c2.8-2.3,3.5-2.8,1.9-1.5-.7.6-1.4,1.1-2.1,1.7-2.1,1.7-4.1,3.4-6.1,5.2,2.4-2.1,7-5.3,10-8-5.2,4.6-1,.8.3-.2s2.4-1.9,3.5-2.9c1.9-1.6,3.8-3.3,5.2-5.4,3.6-5.4,4.7-11.7.9-17.2,0,.1-10.6,7.9-10.3,8.4h0Z"/>
    <path d="M519.5,280.7c9-7.5,3.9-4.2-1.1-3.3-3.6.7-6.9.9-10.6.7-4.8-.4-10.6-2.4-13.9-6.1s-4.3-7.6-4.3-11.2,1.5-6.2,4-8.9c-3.5,2.9-7.1,5.8-10.6,8.7,2.2-1.6,4.9-2.1,7.4-3.1,4.2-1.8,6.8-7.1,10.9-8.8-3.1,1.3-6.1,2.1-8.8,4.2s-6.8,5-9.6,7.9c-4.7,4.7-4.7,10.3-2,16.2,3.8,8.4,14.2,10.9,22.7,10,3.9-.4,8.6-1,12-3,4.3-2.4,8.1-6.2,11.8-9.3s1.7-1.5-.1-.2c-2.6,2-5.2,4.1-7.7,6.2h0Z"/>
  </g>
  <g>
    <path d="M556.9,196.5c4.8-3,12-4,16.7,0,4.5,3.9,6.2,9.8,6.2,15.6l9.8-7.9c-1.3.7-2.9.9-4.3,1.2s-3.7,2.8-5,3.9-3.3,3.7-4.8,4.1c1.4-.3,3-.6,4.3-1.2,1.8-.9,3.4-2.6,5-3.9s4.8-3,4.8-4.1c0-5.9-1.8-12.7-7-16.2-4.9-3.4-11.6-2.1-16.3.8-3.2,2-6.9,6.2-9.4,7.7h0Z"/>
    <path d="M542.8,224.2c12.5-4,24.9-8,37.4-11.9,3.4-1.1,5.4-6,8.7-7-12.5,4-24.9,8-37.4,11.9-3.4,1.1-5.4,6-8.7,7h0Z"/>
    <path d="M573.9,186.1c-6.6.7-12.6,5.5-17.5,9.5-3,2.4-6.2,4.7-8.1,8.1-2.9,5.1-5.1,11.6-5.3,17.4-.3,9,3,18.1,10.8,22.9s19.8-.4,28.4-3.2c3.8-1.2,6.1-6.7,9.8-7.9-7.1,2.3-16.3,6.8-24,5.2-6.1-1.3-10.6-6.4-12.8-11.8-3.5-8.7-2.7-17.1.6-25.7.5-1.2,3.2-5.1,3.1-6.3-4.7,3.3-5.8,4.2-3.2,2.8.7-.3,1.3-.6,2-.9,2.1-.9,4.2-1.9,6.4-2.1,1.4-.1,3.9-3,5-3.9s3.5-3.9,4.8-4.1h0Z"/>
  </g>
  <g>
    <path d="M646.6,154.9c-.7-5.2-2.8-10.4-8.2-12s-10.8.4-14.9,3.4c-3.6,2.7-8.9,5.9-11.2,9.9s-3.8,13.5-4.3,19.6c0-.7,4.5-3.5,5.2-4s4.9-3,5-4.2c.4-5.2,1.5-10.1,2.8-15.1s2-4.4,2-5.3c-2.4,1.9-4.8,3.8-7.2,5.7l1.1-.5c1.2-.2,2.5-.8,3.7-1.1,9-2.4,14.7,3.2,15.8,11.9,0-.4,4.7-3.6,5.2-4s5.1-3.4,5-4.2h0Z"/>
    <path d="M607.9,175.4v72.5c0-.6,4.6-3.5,5.2-4s5-3.2,5-4.2v-72.5c0,.6-4.6,3.5-5.2,4s-5,3.2-5,4.2h0Z"/>
    <path d="M594.7,193.9c13.5,0,26.9,0,40.4,0,1.3,0,4.2-3.2,5.1-4s3.8-4.2,5-4.2c-13.5,0-26.9,0-40.4,0-1.3,0-4.2,3.2-5.1,4-.9.7-3.8,4.2-5,4.2h0Z"/>
  </g>
  <g>
    <path d="M644.6,195.1c5.6-3,13.5-4.5,19.2-1,4.8,2.9,7.5,8.7,8.7,14,2.5,10.5-1.1,23.5-8.8,31.1,2.2-2.1,7-5.1,9.8-7.8,7.5-7.4,11.4-19.8,9.3-30.2-1.1-5.3-3.4-11.1-7.8-14.4-5.8-4.4-14.4-3-20.4.3-3.8,2-6.4,6.2-10.1,8.2h0Z"/>
    <path d="M671.4,232.7c-5.6,3-13.5,4.5-19.2,1-4.8-2.9-7.5-8.7-8.7-14-2.5-10.5,1.1-23.5,8.8-31.1-2.2,2.1-7,5.1-9.8,7.8-7.5,7.4-11.4,19.8-9.3,30.2,1.1,5.3,3.4,11.1,7.8,14.4,5.8,4.4,14.4,3,20.4-.3,3.8-2,6.4-6.2,10.1-8.2h0Z"/>
  </g>
  <g>
    <path d="M691,192.8c0,18.4,0,36.8,0,55.1,0-.6,4.6-3.5,5.2-4s5-3.2,5-4.2c0-18.4,0-36.8,0-55.1,0,.6-4.6,3.5-5.2,4-.8.6-5,3.2-5,4.2h0Z"/>
    <path d="M693.9,198.2c7.3-4.5,19.1-7,27.1-2.8,4.1,2.1,4.7,4.8,4.6,9.2-.1,4.8.1,9.7.1,14.5,0-.6,4.6-3.5,5.2-4s5-3.2,5-4.2c0-4.8-.3-9.7-.1-14.5s-1-7.9-5.9-9.9c-8.1-3.3-19-.7-26.2,3.7-3.4,2.1-7.2,6.5-9.8,8h0Z"/>
    <path d="M725.8,213.5c0,11.5,0,23,0,34.5,0-.6,4.6-3.5,5.2-4s5-3.2,5-4.2c0-11.5,0-23,0-34.5,0,.6-4.6,3.5-5.2,4s-5,3.2-5,4.2h0Z"/>
  </g>
  <g>
    <path d="M739.1,193.9c13.3,0,26.7,0,40,0,1.2,0,4.1-3.2,5.1-4s3.8-4.2,4.9-4.2c-13.3,0-26.7,0-40,0s-4.1,3.2-5.1,4-3.8,4.2-4.9,4.2h0Z"/>
    <path d="M753.1,228c-.1,5.4-.8,13.4,5.2,16.1,5.2,2.3,9.3.7,14.1-1.6s3.6-2.7,5.1-4c1.5-1.2,3.2-3.4,5-4.2-4.8,2.3-8.9,3.9-14.1,1.6-6-2.7-5.4-10.7-5.2-16.1,0,.6-4.5,3.5-5.1,4s-4.9,3.1-5,4.2h0Z"/>
    <path d="M763.2,220.6c0-18.9,0-37.9,0-56.8,0,.6-4.5,3.5-5.1,4s-4.9,3.1-4.9,4.2c0,18.9,0,37.9,0,56.8,0-.6,4.5-3.5,5.1-4s4.9-3.1,4.9-4.2h0Z"/>
  </g>
  <path d="M822.5,191.1c-3.7-7.5-14.7-8.2-21.4-4.6-3.1,1.6-5.7,3.9-8.4,6.2s-5.3,4.4-5,9.1,1.8,7.1,6,9.7c2.1,1.3,3.9,3,6,4.3,2.1,1.3,4.4,2.1,6.4,3.4,3.9,2.4,8.1,6.6,9.4,11.1s.9,9.9-1.5,13.2l1.4-1.3-1.1.9c2.9-2.3,5.9-4.7,8.8-7-9.9,5.1-23.8-.8-28.5-10.3.3.7-10.7,7.2-10.2,8.3,4.3,8.8,14,12.6,23.5,11.6s6.8-2.6,10.2-5.4,7.2-4.9,7.8-9.4c1.5-11.2-4.9-17.6-14.2-22.4-2.2-1.1-4-2.7-6-4.1-1.7-1.2-3.8-2.1-5.4-3.7-2.9-2.9-3.8-10.5-.7-13.5-3.4,2.7-6.7,5.4-10.1,8.1,7.2-3.5,18.5-4.3,22.6,4.1-.3-.7,10.7-7.2,10.2-8.3h0Z"/>
  <g>
    <path d="M834.8,193c0,18.3,0,36.6,0,54.9,0-.6,4.5-3.5,5.2-4s5-3.2,5-4.2c0-18.3,0-36.6,0-54.9,0,.6-4.5,3.5-5.2,4s-5,3.2-5,4.2h0Z"/>
    <path d="M834.9,164.3c0,5.7,0,11.4,0,17,0-.6,4.5-3.5,5.1-4s4.9-3.1,4.9-4.2c0-5.7,0-11.4,0-17,0,.6-4.5,3.5-5.1,4s-4.9,3.1-4.9,4.2h0Z"/>
  </g>
  <g>
    <path d="M855.2,191.5c7.5,18.6,15,37.2,22.5,55.8-.4-1,10.7-6.9,10.2-8.3-7.5-18.6-15-37.2-22.5-55.8.4,1-10.7,6.9-10.2,8.3h0Z"/>
    <path d="M897.1,191.4c-6.1,18.2-12.1,36.5-18.2,54.7.4-1.1,4.1-3.2,5.1-3.9s4.4-2.6,4.9-4.1c6.1-18.2,12.1-36.5,18.2-54.7-.4,1.1-4.1,3.2-5.1,3.9-1.2.9-4.4,2.6-4.9,4.1h0Z"/>
  </g>
  <line class="st0" x1="118.1" y1="142.7" x2="1035.2" y2="142.7"/>
  <line class="st0" x1="118.1" y1="185.8" x2="1035.2" y2="185.8"/>
  <line class="st0" x1="118.1" y1="248.6" x2="1035.2" y2="248.6"/>
  <line class="st0" x1="118.1" y1="193" x2="1035.2" y2="193"/>
  <text class="st3" transform="translate(961.9 139.9)"><tspan x="0" y="0">CAP-HEIGHT</tspan></text>
  <text class="st3" transform="translate(977.7 182)"><tspan x="0" y="0">X-HEIGHT</tspan></text>
  <text class="st3" transform="translate(979 244.5)"><tspan x="0" y="0">BASELINE</tspan></text>
  <line class="st0" x1="118.1" y1="286.6" x2="1035.2" y2="286.6"/>
  <text class="st3" transform="translate(934.9 281.9)"><tspan x="0" y="0">DESCENDER LINE</tspan></text>
  <text class="st3" transform="translate(972.9 206)"><tspan x="0" y="0">MEANLINE</tspan></text>
  <g>
    <line class="st1" x1="332.1" y1="145.4" x2="332.1" y2="95.4"/>
    <circle class="st2" cx="332.1" cy="148.4" r="3.5"/>
  </g>
  <text class="st3" transform="translate(304.7 93.2)"><tspan x="0" y="0">Ascender</tspan></text>
  <line class="st1" x1="484.6" y1="268.7" x2="484.6" y2="318.7"/>
  <circle class="st2" cx="484.6" cy="266.6" r="3.5"/>
  <text class="st3" transform="translate(446.9 330.7)"><tspan x="0" y="0">Descender</tspan></text>
  <line class="st1" x1="527.8" y1="278.2" x2="527.8" y2="318.7"/>
  <circle class="st2" cx="527.8" cy="275.2" r="3.5"/>
  <text class="st3" transform="translate(512.6 330.9)"><tspan x="0" y="0">Loop</tspan></text>
  <text class="st3" transform="translate(445.6 299.3)"><tspan x="0" y="0">Link</tspan></text>
  <line class="st1" x1="715.5" y1="184.4" x2="715.5" y2="134.4"/>
  <circle class="st2" cx="715.5" cy="187.4" r="3.5"/>
  <text class="st3" transform="translate(688.8 130.2)"><tspan x="0" y="0">Shoulder</tspan></text>
  <line class="st1" x1="770.9" y1="237.1" x2="770.9" y2="318.7"/>
  <circle class="st2" cx="770.9" cy="239.5" r="3.5"/>
  <text class="st3" transform="translate(745.7 330.7)"><tspan x="0" y="0">Termi</tspan><tspan x="33.5" y="0">-</tspan></text>
  <g>
    <line class="st1" x1="131.2" y1="145.4" x2="131.2" y2="95.4"/>
    <circle class="st2" cx="131.2" cy="148.4" r="3.5"/>
  </g>
  <text class="st3" transform="translate(116 91.2)"><tspan x="0" y="0">Stem</tspan></text>
  <g>
    <line class="st1" x1="157" y1="192.1" x2="157" y2="287.5"/>
    <circle class="st2" cx="157" cy="190" r="3.5"/>
  </g>
  <text class="st3" transform="translate(131.5 299.3)"><tspan x="0" y="0">Crossbar</tspan></text>
  <g>
    <line class="st1" x1="545.1" y1="184.4" x2="545.1" y2="134.4"/>
    <circle class="st2" cx="545.1" cy="187.4" r="3.5"/>
    <text class="st3" transform="translate(536 130.2)"><tspan x="0" y="0">Ear</tspan></text>
  </g>
  <line class="st1" x1="567.7" y1="204.8" x2="567.7" y2="155.9"/>
  <circle class="st2" cx="567.7" cy="203.4" r="3.5"/>
  <text class="st3" transform="translate(557.4 152.3)"><tspan x="0" y="0">Eye</tspan></text>
  <text class="st3" transform="translate(794.7 279.2)"><tspan x="0" y="0">Spine</tspan></text>
  <line class="st1" x1="775.2" y1="184.4" x2="775.2" y2="134.4"/>
  <circle class="st2" cx="775.2" cy="187.4" r="3.5"/>
  <text class="st3" transform="translate(762.7 130.2)"><tspan x="0" y="0">Arm</tspan></text>
  <line class="st1" x1="863.9" y1="213.2" x2="863.9" y2="267.8"/>
  <circle class="st2" cx="863.9" cy="211.8" r="3.5"/>
  <text class="st3" transform="translate(852.9 279.6)"><tspan x="0" y="0">Leg</tspan></text>
  <line class="st1" x1="369.8" y1="211.8" x2="369.8" y2="282.5"/>
  <circle class="st2" cx="369.8" cy="211.8" r="3.5"/>
  <text class="st3" transform="translate(355.4 299.3)"><tspan x="0" y="0">Bowl</tspan></text>
  <text class="st3" transform="translate(646.6 279.6)"><tspan x="0" y="0">Counter</tspan></text>
  <text class="st3" transform="translate(578.4 279.6)"><tspan x="0" y="0">Aperture</tspan></text>
  <line class="st1" x1="883.9" y1="224.5" x2="883.9" y2="155.9"/>
  <circle class="st2" cx="883.9" cy="226.9" r="3.5"/>
  <text class="st3" transform="translate(864.4 152.3)"><tspan x="0" y="0">Crotc</tspan></text>
  <line class="st1" x1="878" y1="247.2" x2="878" y2="318.7"/>
  <circle class="st2" cx="878" cy="244.9" r="3.5"/>
  <text class="st3" transform="translate(859 330.7)"><tspan x="0" y="0">Vertex</tspan></text>
  <line class="st1" x1="811.3" y1="217.8" x2="811.3" y2="267.8"/>
  <circle class="st2" cx="811.3" cy="215.8" r="3.5"/>
  <text class="st3" transform="translate(627.3 299.3)"><tspan x="0" y="0">Stress</tspan></text>
  <line class="st1" x1="644.6" y1="237.1" x2="644.6" y2="287.6"/>
  <circle class="st2" cx="644.6" cy="235.8" r="3.5"/>
  <text class="st3" transform="translate(168.2 279.2)"><tspan x="0" y="0">Serif</tspan></text>
  <line class="st1" x1="182.2" y1="239" x2="182.2" y2="267.8"/>
  <circle class="st2" cx="182.2" cy="235.8" r="3.5"/>
  <line class="st1" x1="897.5" y1="214.2" x2="897.5" y2="267.8"/>
  <circle class="st2" cx="897.5" cy="211.8" r="3.5"/>
  <text class="st3" transform="translate(880.5 279.6)"><tspan x="0" y="0">Hairline</tspan></text>
  <line class="st1" x1="202.5" y1="193.5" x2="202.5" y2="134.4"/>
  <circle class="st2" cx="202.5" cy="195.4" r="3.5"/>
  <text class="st3" transform="translate(177.3 130.2)"><tspan x="0" y="0">Termi</tspan><tspan x="33.5" y="0">-</tspan></text>
  <polyline class="st1" points="458 282.5 458 239.5 486.8 239.5"/>
  <circle class="st2" cx="489" cy="239.5" r="3.5"/>
  <polyline class="st1" points="604 267.8 604 224.8 588 224.8"/>
  <circle class="st2" cx="588" cy="224.8" r="3.5"/>
  <line class="st1" x1="668.4" y1="217.3" x2="668.4" y2="267.8"/>
  <circle class="st2" cx="668.4" cy="217.1" r="3.5"/>
  <g>
    <line class="st1" x1="840.2" y1="166.7" x2="840.2" y2="134.4"/>
    <circle class="st2" cx="840.2" cy="169.3" r="3.5"/>
    <text class="st3" transform="translate(825.3 130.2)"><tspan x="0" y="0">Tittl</tspan></text>
  </g>
</svg>