<?xml version="1.0" encoding="UTF-8"?><svg id="_图层_2" xmlns="http://www.w3.org/2000/svg" viewBox="0 0 1074 450"><path d="M125.964,150.482c0,32.494,0,64.987,0,97.481,0-.613,4.568-3.53,5.184-4.029.782-.633,5.019-3.168,5.019-4.233v-1.15c0,.613-4.568,3.53-5.184,4.029-.782.633-5.019,3.168-5.019,4.233v1.15c3.401-2.754,6.802-5.508,10.203-8.262,0-32.494,0-64.987,0-97.481,0,.613-4.568,3.53-5.184,4.029-.782.633-5.019,3.168-5.019,4.233h0Z"/><path d="M177.495,150.482c0,32.494,0,64.987,0,97.481,0-.613,4.568-3.53,5.184-4.029.782-.633,5.019-3.168,5.019-4.233v-1.15c0,.613-4.568,3.53-5.184,4.029-.782.633-5.019,3.168-5.019,4.233v1.15c3.401-2.754,6.802-5.508,10.203-8.262,0-32.494,0-64.987,0-97.481,0,.613-4.568,3.53-5.184,4.029-.782.633-5.019,3.168-5.019,4.233h0Z"/><path d="M125.866,194.044c17.395,0,34.789,0,52.184,0,1.275,0,4.234-3.259,5.218-4.055.921-.746,3.9-4.261,5.052-4.261-17.395,0-34.789,0-52.184,0-1.275,0-4.234,3.259-5.218,4.055-.921.746-3.9,4.261-5.052,4.261h0Z"/><path d="M229.731,205.369c0,14.198,0,28.396,0,42.594,0-.56,4.174-3.226,4.737-3.682.714-.578,4.586-2.895,4.586-3.868,0-14.198,0-28.396,0-42.594,0,.56-4.174,3.226-4.737,3.682-.714.578-4.586,2.895-4.586,3.868h0Z"/><path d="M206.53,194.997c-.226-1.064-.154-2.098.219-3.1,1.744-3.079.106-1.979-4.915,3.3,1.291.1,3.424-1.06,4.774-1.242,3.694-.497,7.648-.456,11.285.34,5.99,1.31,10.145,5.465,11.821,11.244-.393-1.356,9.988-6.014,9.501-7.694-3.12-10.757-14.702-13.455-24.751-11.315-4.135.881-7.063,3.531-10.259,6.121-3.506,2.84-7.381,5.079-7.176,10.04-.021-.514,4.285-3.313,4.827-3.752.687-.556,4.712-3.011,4.674-3.942h0Z"/><path d="M238.376,210.234c-9.56-3.323-19.114-1.429-27.011,4.703-6.403,4.973-13.47,10.413-14.762,19.013-.707,4.703,1.721,9.532,5.824,11.96,4.47,2.645,10.18,1.899,14.938.522,6.829-1.976,13.785-7.362,18.28-12.823-2.006,2.438-5.554,3.67-7.598,6.152,2.367-1.593,2.538-1.847.514-.763l-1.415.574c-1.424.533-2.912.952-4.398,1.273-3.152.682-6.609,1.045-9.76.157-5.355-1.509-9.412-6.816-8.871-12.438.26-2.707,1.292-5.395,2.642-7.739.68-1.18,1.576-2.674,2.564-3.629-1.57,1.517,1.731-.575,2.245-.772,6.209-2.379,12.983-2.203,19.209-.039,1.735.603,6.097-6.674,7.598-6.152h0Z"/><path d="M247.624,193.057c0,18.302,0,36.604,0,54.906,0-.615,4.584-3.542,5.202-4.043.784-.635,5.036-3.179,5.036-4.248,0-18.302,0-36.604,0-54.906,0,.615-4.584,3.542-5.202,4.043-.784.635-5.036,3.179-5.036,4.248h0Z"/><path d="M263.046,192.081c-.898,1.083-8.135,5.032-3.114,3.206.884-.322,1.78-.57,2.701-.76,2.259-.465,4.616-.572,6.899-.213,5.398.849,7.61,4.191,8.946,9.231-.418-1.578,10.853-6.445,10.341-8.374-1.177-4.44-2.951-7.784-7.625-8.967-3.98-1.008-8.498-.454-12.214,1.234-5.836,2.652-12.208,8.11-16.276,13.017,2.745-3.311,7.546-5.003,10.341-8.374h0Z"/><path d="M278.609,203.181c0,14.927,0,29.854,0,44.781,0-.605,4.513-3.488,5.122-3.981.772-.625,4.959-3.13,4.959-4.182,0-14.927,0-29.854,0-44.781,0,.605-4.513,3.488-5.122,3.981-.772.625-4.959,3.13-4.959,4.182h0Z"/><path d="M292.26,192.238c-.898,1.083-8.135,5.032-3.114,3.206.884-.322,1.78-.57,2.701-.76,2.259-.465,4.616-.572,6.899-.213,5.398.849,7.61,4.191,8.946,9.231-.418-1.578,10.853-6.445,10.341-8.374-1.177-4.44-2.951-7.784-7.625-8.967-3.98-1.008-8.498-.454-12.214,1.234-5.836,2.652-12.208,8.11-16.276,13.017,2.745-3.311,7.546-5.003,10.341-8.374h0Z"/><path d="M307.744,203.181c0,14.927,0,29.854,0,44.781,0-.605,4.513-3.488,5.122-3.981.772-.625,4.959-3.13,4.959-4.182,0-14.927,0-29.854,0-44.781,0,.605-4.513,3.488-5.122,3.981-.772.625-4.959,3.13-4.959,4.182h0Z"/><path d="M326.716,150.955c0,32.336,0,64.672,0,97.008,0-.613,4.57-3.532,5.187-4.031.782-.633,5.021-3.17,5.021-4.235,0-32.336,0-64.672,0-97.008,0,.613-4.57,3.532-5.187,4.031-.782.633-5.021,3.17-5.021,4.235h0Z"/><path d="M344.724,191.532c.2-1.418.441-2.075,1.309-3.201l-2.461,2.14.883-.729c-2.589,2.048-5.178,4.096-7.767,6.143,7.334-4.117,18.151-2.416,23.239,4.478,4.757,6.446,5.376,15.882,4.785,23.584-.3,3.914-1.571,6.989-2.691,10.642-1.707,2.422-.769,1.922,2.814-1.5-.886.445-1.793.84-2.723,1.186-2.002.758-4.085,1.339-6.224,1.519-8.923.752-14.717-4.436-18.976-11.698.235.401-10.66,7.546-10.229,8.283,2.835,4.835,6.558,9.565,12.16,11.065,5.872,1.572,12.109.205,17.258-2.896,4.562-2.747,8.972-6.51,12.834-10.158,3.964-3.745,5.437-8.637,5.949-13.966,1.155-12.017-1.492-28.834-16.035-30.852-5.017-.696-10.068.514-14.013,3.583-3.377,2.627-9.685,6.018-10.341,10.661.118-.836,4.439-3.426,5.197-4.039.953-.771,4.85-2.958,5.031-4.244h0Z"/><path d="M381.911,191.417c0,12.814,0,25.628,0,38.442,0-.596,4.443-3.433,5.042-3.919.76-.615,4.882-3.082,4.882-4.117,0-12.814,0-25.628,0-38.442,0,.596-4.443,3.433-5.042,3.919-.76.615-4.882,3.082-4.882,4.117h0Z"/><path d="M419.75,192.316v55.646c0-.611,4.557-3.522,5.172-4.02.78-.631,5.007-3.161,5.007-4.223v-55.646c0,.611-4.557,3.522-5.172,4.02-.78.631-5.007,3.161-5.007,4.223h0Z"/><path d="M381.877,229.43c.428,6.327,3.802,13.433,10.205,15.623,6.328,2.164,13.836.168,19.722-2.379,3.804-1.646,6.222-6.437,9.931-8.042-5.892,2.55-13.393,4.544-19.722,2.379-6.399-2.188-9.777-9.3-10.205-15.623.034.5-4.498,3.479-5.046,3.922-.691.559-4.948,3.188-4.885,4.12h0Z"/><path d="M441.058,193.062v54.901c0-.612,4.563-3.527,5.179-4.025.781-.632,5.014-3.165,5.014-4.229v-54.901c0,.612-4.563,3.527-5.179,4.025-.781.632-5.014,3.165-5.014,4.229h0Z"/><path d="M451.067,201.161c1.069-3.487,2.925-5.913,5.305-8.633,2.666-2.504,1.363-1.482-3.91,3.065l2.398-1.283c1.802-.756,3.669-1.044,5.602-1.207,7.058-.596,11.667,3.324,14.499,9.583-.372-.822,10.553-6.958,10.027-8.12-2.129-4.705-5.88-9.369-11.412-9.683-4.988-.283-9.279,1.149-13.241,4.062-7.1,5.222-16.59,11.507-19.297,20.337.329-1.075,4.155-3.199,5.095-3.96,1.144-.926,4.481-2.689,4.932-4.16h0Z"/><path d="M495.224,195.972c2.074-1.587,6.914-1.881,9.428-2.112,4.227-.388,8.492.348,11.877,3.122,3.658,2.998,5.807,7.657,6.005,12.336.099,2.326-.138,4.726-.988,6.908-.407,1.043-1.073,1.897-1.547,2.888-2.296,4.801,9.75-5.847,4.469-3.404-3.98,1.841-6.561,6.663-10.451,8.463,5.146-2.38,10.195-6.703,14.17-10.713,4.487-4.526,6.051-11.252,3.984-17.328-2.27-6.676-8.366-11.15-15.394-10.815-4.108.196-9.269.681-12.613,3.24-2.435,1.863-4.823,3.791-7.18,5.752-.477.397-3.67,3.124-1.759,1.661h0Z"/><path d="M523.553,216.57c-2.074,1.587-6.914,1.881-9.428,2.112-4.227.388-8.492-.348-11.877-3.122-3.658-2.998-5.807-7.657-6.005-12.336-.099-2.326.138-4.726.988-6.908.407-1.043,1.073-1.897,1.547-2.888,2.296-4.801-9.75,5.847-4.469,3.404,3.98-1.841,6.561-6.663,10.451-8.463-5.146,2.38-10.195,6.703-14.17,10.713-4.487,4.526-6.051,11.252-3.984,17.328,2.27,6.676,8.366,11.15,15.394,10.815,4.108-.196,9.269-.681,12.613-3.24,2.435-1.863,4.823-3.791,7.18-5.752.477-.397,3.67-3.124,1.759-1.661h0Z"/><path d="M535.941,188.283c.45-1.13.808-1.934,1.753-2.789l-9.863,7.987c4.58-3.177,12.608-3.739,16.519.943.167.199,10.315-8.18,10.229-8.283-3.869-4.633-11.614-4.075-16.276-1.154-2.922,1.832-5.571,4.278-8.215,6.475-1.893,1.574-3.448,2.772-4.376,5.103.488-1.226,4.118-3.165,5.197-4.039,1.282-1.038,4.399-2.655,5.031-4.244h0Z"/><path d="M504.164,226.68c11.478-9.503.131-1.639-2.856.579-2.785,2.068-5.459,4.305-8.113,6.535-2.927,2.46-10.424,9.639-4.333,12.203,3.903,1.643,8.984,1.094,13.131,1.316,4.091.218,8.205.539,12.16,1.679,6.759,1.948,14.666,6.403,15.273,14.191-.039-.504,4.678-3.617,5.239-4.071.707-.572,5.146-3.326,5.072-4.278-.514-6.595-6.374-10.796-12.06-13.084-7.491-3.014-15.472-2.535-23.357-3.18-2.376-.195-6.966-.161-7.515-3.197-.199-1.098.717-2.753,1.174-3.68.327-.718.721-1.397,1.182-2.036-6.529,4.502-8.143,5.766-4.842,3.793,5.619-2.903,10.338-6.785,15.193-10.805.216-.179,3.83-2.987,1.735-1.639-2.497,1.607-4.799,3.784-7.083,5.674h0Z"/><path d="M527.086,257.019c3.547,5.105,2.815,10.804-.235,16.048-.3.517-3.141,3.909-3.101,3.995,2.825-2.278,3.46-2.791,1.906-1.539-.69.554-1.377,1.111-2.062,1.672-2.076,1.697-4.121,3.419-6.123,5.203,2.357-2.101,7.012-5.341,10.022-8.025-5.188,4.625-.99.814.283-.228,1.173-.96,2.352-1.917,3.503-2.904,1.918-1.643,3.805-3.306,5.224-5.419,3.598-5.361,4.726-11.72.93-17.183.074.107-10.648,7.946-10.347,8.379h0Z"/><path d="M519.499,280.68c8.973-7.536,3.941-4.205-1.094-3.277-3.605.664-6.937.949-10.617.66-4.754-.374-10.571-2.411-13.858-6.072-2.42-2.696-4.3-7.553-4.332-11.191-.034-3.891,1.528-6.239,4.008-8.943l-10.648,8.67c2.247-1.588,4.884-2.089,7.372-3.147,4.166-1.772,6.805-7.071,10.865-8.798-3.116,1.325-6.069,2.088-8.809,4.154-3.27,2.465-6.763,5.004-9.645,7.92-4.669,4.723-4.682,10.28-1.991,16.223,3.818,8.432,14.228,10.882,22.741,10.022,3.878-.392,8.571-1.017,12.001-2.968,4.281-2.435,8.062-6.169,11.814-9.32,1.746-1.466,1.684-1.52-.124-.154-2.626,1.983-5.163,4.105-7.683,6.221h0Z"/><path d="M556.938,196.49c4.781-2.959,12.038-3.992,16.654.025,4.505,3.92,6.188,9.785,6.18,15.614l9.784-7.923c-1.261.655-2.884.896-4.258,1.226-1.593.381-3.711,2.844-4.971,3.864-1.201.973-3.319,3.702-4.813,4.059,1.374-.329,2.997-.571,4.258-1.226,1.785-.926,3.414-2.603,4.971-3.864.751-.608,4.812-3.036,4.813-4.059.008-5.926-1.828-12.703-6.953-16.249-4.944-3.421-11.55-2.083-16.273.84-3.198,1.979-6.915,6.159-9.393,7.692h0Z"/><path d="M542.753,224.176c12.463-3.976,24.926-7.951,37.389-11.927,3.358-1.071,5.448-6.003,8.691-7.038-12.463,3.976-24.926,7.951-37.389,11.927-3.358,1.071-5.448,6.003-8.691,7.038h0Z"/><path d="M573.862,186.123c-6.558.675-12.622,5.517-17.549,9.508-2.998,2.428-6.153,4.665-8.073,8.077-2.861,5.083-5.113,11.595-5.288,17.448-.269,9.036,2.978,18.09,10.839,22.891,8.555,5.224,19.799-.357,28.383-3.172,3.784-1.241,6.135-6.73,9.792-7.929-7.13,2.338-16.309,6.768-24.003,5.16-6.054-1.265-10.556-6.403-12.767-11.845-3.517-8.656-2.741-17.073.621-25.65.487-1.243,3.208-5.146,3.07-6.286-4.749,3.297-5.812,4.218-3.188,2.764.655-.327,1.32-.634,1.993-.922,2.055-.884,4.153-1.886,6.38-2.115,1.389-.143,3.901-2.997,4.975-3.867,1.015-.822,3.535-3.931,4.817-4.062h0Z"/><path d="M646.605,154.936c-.702-5.234-2.821-10.443-8.241-12.019-5.062-1.472-10.766.353-14.909,3.393-3.642,2.673-8.932,5.862-11.194,9.939-3.027,5.457-3.842,13.549-4.343,19.648.061-.742,4.502-3.477,5.197-4.039.879-.712,4.933-3.047,5.031-4.244.425-5.176,1.476-10.143,2.843-15.146.248-.907,2.009-4.372,1.967-5.283l-7.227,5.726,1.123-.503c1.215-.185,2.487-.767,3.682-1.086,9.011-2.403,14.673,3.174,15.842,11.897-.057-.423,4.678-3.619,5.197-4.039.648-.525,5.146-3.388,5.031-4.244h0Z"/><path d="M607.948,175.441v72.522c0-.611,4.553-3.519,5.168-4.016.779-.631,5.003-3.158,5.003-4.22v-72.522c0,.611-4.553,3.519-5.168,4.016-.779.631-5.003,3.158-5.003,4.22h0Z"/><path d="M594.729,193.904c13.45,0,26.901,0,40.351,0,1.253,0,4.162-3.204,5.13-3.987.905-.733,3.834-4.189,4.966-4.189-13.45,0-26.901,0-40.351,0-1.253,0-4.162,3.204-5.13,3.987-.905.733-3.834,4.189-4.966,4.189h0Z"/><path d="M644.554,195.1c5.592-3.021,13.528-4.477,19.242-1.015,4.818,2.919,7.496,8.695,8.742,14.001,2.461,10.484-1.089,23.486-8.755,31.051,2.178-2.149,6.995-5.08,9.792-7.841,7.47-7.371,11.429-19.816,9.335-30.199-1.066-5.286-3.403-11.091-7.826-14.447-5.795-4.398-14.437-2.97-20.42.263-3.773,2.038-6.4,6.183-10.11,8.187h0Z"/><path d="M671.396,232.657c-5.592,3.021-13.528,4.477-19.242,1.015-4.818-2.919-7.496-8.695-8.742-14.001-2.461-10.484,1.089-23.486,8.755-31.051-2.178,2.149-6.995,5.08-9.792,7.841-7.47,7.371-11.429,19.816-9.335,30.199,1.066,5.286,3.403,11.091,7.826,14.447,5.795,4.398,14.437,2.97,20.42-.263,3.773-2.038,6.4-6.183,10.11-8.187h0Z"/><path d="M691.037,192.831c0,18.377,0,36.754,0,55.132,0-.613,4.568-3.53,5.184-4.029.782-.633,5.019-3.168,5.019-4.233,0-18.377,0-36.754,0-55.132,0,.613-4.568,3.53-5.184,4.029-.782.633-5.019,3.168-5.019,4.233h0Z"/><path d="M693.941,198.245c7.321-4.479,19.101-6.969,27.089-2.797,4.07,2.126,4.706,4.812,4.601,9.249-.114,4.837.12,9.666.136,14.503-.002-.609,4.582-3.541,5.197-4.039.78-.631,5.035-3.181,5.031-4.244-.016-4.838-.251-9.666-.136-14.503.121-5.12-1.024-7.89-5.925-9.898-8.136-3.333-18.997-.703-26.174,3.688-3.352,2.051-7.223,6.453-9.819,8.041h0Z"/><path d="M725.805,213.495c0,11.489,0,22.979,0,34.468,0-.611,4.551-3.517,5.165-4.015.779-.63,5.001-3.157,5.001-4.218,0-11.489,0-22.979,0-34.468,0,.611-4.551,3.517-5.165,4.015-.779.63-5.001,3.157-5.001,4.218h0Z"/><path d="M739.092,193.872c13.343,0,26.687,0,40.03,0,1.248,0,4.146-3.191,5.109-3.971.902-.73,3.819-4.172,4.947-4.172-13.343,0-26.687,0-40.03,0-1.248,0-4.146,3.191-5.109,3.971-.902.73-3.819,4.172-4.947,4.172h0Z"/><path d="M753.147,227.956c-.124,5.389-.785,13.353,5.23,16.088,5.152,2.342,9.334.684,14.086-1.57,1.84-.872,3.564-2.719,5.139-3.994,1.521-1.231,3.217-3.362,4.975-4.196-4.756,2.256-8.926,3.911-14.086,1.57-6.013-2.728-5.353-10.706-5.23-16.088-.015.642-4.507,3.483-5.139,3.994-.8.648-4.95,3.104-4.975,4.196h0Z"/><path d="M763.234,220.627c0-18.945,0-37.889,0-56.834,0,.604-4.504,3.481-5.112,3.973-.771.624-4.949,3.124-4.949,4.174,0,18.945,0,37.889,0,56.834,0-.604,4.504-3.481,5.112-3.973.771-.624,4.949-3.124,4.949-4.174h0Z"/><path d="M822.548,191.076c-3.666-7.513-14.652-8.161-21.376-4.577-3.063,1.633-5.672,3.927-8.369,6.151-3.261,2.69-5.25,4.449-4.972,9.079.307,5.099,1.816,7.064,5.981,9.707,2.074,1.316,3.902,2.98,5.973,4.294,2.059,1.306,4.363,2.12,6.437,3.403,3.899,2.412,8.131,6.603,9.383,11.145,1.065,3.864.885,9.881-1.494,13.165l1.439-1.285-1.057.901c2.93-2.333,5.859-4.665,8.789-6.998-9.881,5.052-23.799-.798-28.465-10.281.345.701-10.743,7.237-10.229,8.283,4.322,8.782,13.968,12.554,23.456,11.595,4.454-.45,6.823-2.614,10.206-5.353,3.286-2.661,7.166-4.885,7.784-9.379,1.544-11.231-4.871-17.559-14.181-22.418-2.175-1.135-4.033-2.701-6.02-4.123-1.738-1.244-3.843-2.133-5.366-3.656-2.88-2.88-3.837-10.516-.666-13.546l-10.068,8.108c7.151-3.503,18.514-4.273,22.585,4.069-.349-.715,10.746-7.223,10.229-8.283h0Z"/><path d="M834.84,193.014c0,18.316,0,36.633,0,54.949,0-.61,4.549-3.516,5.163-4.013.779-.63,4.999-3.156,4.999-4.216,0-18.316,0-36.633,0-54.949,0,.61-4.549,3.516-5.163,4.013-.779.63-4.999,3.156-4.999,4.216h0Z"/><path d="M834.891,164.338c0,5.676,0,11.351,0,17.027,0-.604,4.504-3.481,5.112-3.973.771-.624,4.949-3.124,4.949-4.174,0-5.676,0-11.351,0-17.027,0,.604-4.504,3.481-5.112,3.973-.771.624-4.949,3.124-4.949,4.174h0Z"/><path d="M855.242,191.514c7.493,18.603,14.987,37.207,22.48,55.81-.409-1.016,10.738-6.887,10.189-8.251-7.493-18.603-14.987-37.207-22.48-55.81.409,1.016-10.738,6.887-10.189,8.251h0Z"/><path d="M897.068,191.379c-6.065,18.229-12.13,36.459-18.195,54.688.368-1.107,4.099-3.154,5.067-3.938,1.17-.947,4.41-2.647,4.905-4.137,6.065-18.229,12.13-36.459,18.195-54.688-.368,1.107-4.099,3.154-5.067,3.938-1.17.947-4.41,2.647-4.905,4.137h0Z"/></svg>